<svg width="395" height="160" viewBox="0 0 395 160" fill="none" xmlns="http://www.w3.org/2000/svg">
<rect y="87" width="395" height="19" fill="#FFDEA7"/>
<path d="M32.4504 29C30.0504 29 28.0837 29.0667 26.5504 29.2C25.0171 29.3333 23.7171 29.6667 22.6504 30.2C21.6504 30.6667 20.7837 31.3667 20.0504 32.3C19.3171 33.2333 18.5171 34.5333 17.6504 36.2L15.5504 40.1H11.2504L20.5504 16.4H23.5504C23.5504 16.5333 23.5171 16.6667 23.4504 16.8C23.4504 16.8667 23.4504 17 23.4504 17.2C23.4504 18.2 23.9837 18.9333 25.0504 19.4C26.1837 19.8 28.0837 20 30.7504 20H61.0504L60.7504 22C58.7504 24.9333 56.5837 28.3333 54.2504 32.2C51.9171 36.0667 49.3171 40.5333 46.4504 45.6C43.5837 50.6 40.4171 56.2333 36.9504 62.5C33.4837 68.7667 29.6171 75.7333 25.3504 83.4C23.7504 86.2667 22.3504 88.6667 21.1504 90.6C19.9504 92.4667 18.8504 93.9667 17.8504 95.1C16.8504 96.1667 15.8837 96.9 14.9504 97.3C14.0837 97.7667 13.1504 98 12.1504 98C10.7504 98 9.58372 97.6333 8.65039 96.9C7.78372 96.1667 7.35039 95.1667 7.35039 93.9C7.35039 93.2333 7.51706 92.4667 7.85039 91.6C8.25039 90.7333 8.98372 89.4333 10.0504 87.7C11.1837 85.9667 12.7504 83.6333 14.7504 80.7C16.8171 77.7 19.5504 73.8 22.9504 69L51.0504 29H32.4504ZM85.3918 47.9C88.7918 47.9 91.9251 48.4667 94.7918 49.6C97.6585 50.6667 100.125 52.2 102.192 54.2C104.325 56.2 105.958 58.5667 107.092 61.3C108.292 64.0333 108.892 67 108.892 70.2C108.892 74 108.058 77.6 106.392 81C104.725 84.4 102.458 87.3667 99.5918 89.9C96.7251 92.3667 93.3585 94.3333 89.4918 95.8C85.6918 97.2667 81.6251 98 77.2918 98C74.1585 98 71.3251 97.6333 68.7918 96.9C66.2585 96.1 64.0918 95.0333 62.2918 93.7C60.4918 92.3 59.0918 90.6333 58.0918 88.7C57.1585 86.7 56.6918 84.5 56.6918 82.1C56.6918 80.3 56.9585 78.6 57.4918 77C58.0918 75.3333 58.8585 73.9 59.7918 72.7C60.7918 71.4333 61.9251 70.4333 63.1918 69.7C64.4585 68.9667 65.8251 68.6 67.2918 68.6C68.8918 68.6 70.2918 69.0333 71.4918 69.9C72.7585 70.7 73.5251 71.7333 73.7918 73C71.6585 73 69.8585 73.9 68.3918 75.7C66.9251 77.5 66.1918 79.7667 66.1918 82.5C66.1918 85.7 67.2251 88.2333 69.2918 90.1C71.4251 91.9 74.2918 92.8 77.8918 92.8C80.6918 92.8 83.2585 92.2 85.5918 91C87.9251 89.8 89.9251 88.1667 91.5918 86.1C93.3251 83.9667 94.6585 81.4667 95.5918 78.6C96.5918 75.6667 97.0918 72.4667 97.0918 69C97.0918 63.7333 95.8918 59.7333 93.4918 57C91.1585 54.2667 87.6918 52.9 83.0918 52.9C80.6918 52.9 78.6585 53.2 76.9918 53.8C75.3918 54.4 73.9918 55.1 72.7918 55.9C71.6585 56.6333 70.6918 57.3 69.8918 57.9C69.1585 58.5 68.4918 58.8 67.8918 58.8C67.4918 58.8 67.1251 58.6667 66.7918 58.4C66.5251 58.0667 66.3918 57.6333 66.3918 57.1C66.3918 56.6333 66.4585 56.2 66.5918 55.8L79.0918 19C80.6918 19.5333 82.8918 19.9667 85.6918 20.3C88.5585 20.6333 91.7918 20.8 95.3918 20.8C99.0585 20.8 102.325 20.6333 105.192 20.3C108.058 19.9667 110.358 19.5 112.092 18.9L112.692 19C109.892 26.9333 104.092 30.9 95.2918 30.9C94.2918 30.9 93.1918 30.8667 91.9918 30.8C90.8585 30.6667 89.6585 30.5333 88.3918 30.4C87.1918 30.2 85.9918 30 84.7918 29.8C83.5918 29.6 82.4585 29.3667 81.3918 29.1L74.6918 48.8L75.0918 49.4C75.5585 49.2 76.1918 49.0333 76.9918 48.9C77.7918 48.7 78.6585 48.5333 79.5918 48.4C80.5251 48.2 81.4918 48.0667 82.4918 48C83.5585 47.9333 84.5251 47.9 85.3918 47.9ZM121.727 96.7C120.927 96.9 120.227 97 119.627 97C117.894 97 116.594 96.4667 115.727 95.4C114.927 94.3333 114.527 92.9333 114.527 91.2C114.527 89.2 115.194 87.5 116.527 86.1C117.86 84.7 119.494 84 121.427 84C123.494 84 125.194 84.7 126.527 86.1C127.86 87.5 128.527 89.1667 128.527 91.1C128.527 94.8333 127.194 98.7667 124.527 102.9C121.86 107.033 118.027 110.9 113.027 114.5L110.727 111.3C114.327 108.767 117.06 106.167 118.927 103.5C120.794 100.9 121.727 98.6333 121.727 96.7ZM164.162 98C161.295 98 158.695 97.3667 156.362 96.1C154.029 94.7667 152.029 92.9333 150.362 90.6C148.695 88.2667 147.395 85.4667 146.462 82.2C145.529 78.8667 145.062 75.2 145.062 71.2C145.062 64.8 146.129 58.5 148.262 52.3C150.395 46.0333 153.195 40.4333 156.662 35.5C160.195 30.5667 164.129 26.6 168.462 23.6C172.862 20.5333 177.329 19 181.862 19C184.729 19 187.329 19.6333 189.662 20.9C192.062 22.1 194.095 23.8333 195.762 26.1C197.429 28.3 198.729 30.9667 199.662 34.1C200.595 37.2333 201.062 40.7 201.062 44.5C201.062 48.7 200.562 52.9667 199.562 57.3C198.562 61.5667 197.162 65.7 195.362 69.7C193.629 73.6333 191.562 77.3333 189.162 80.8C186.762 84.2 184.195 87.2 181.462 89.8C178.729 92.3333 175.895 94.3333 172.962 95.8C170.029 97.2667 167.095 98 164.162 98ZM180.862 24.2C178.929 24.2 176.962 24.9667 174.962 26.5C173.029 28.0333 171.129 30.1333 169.262 32.8C167.462 35.4 165.762 38.5 164.162 42.1C162.562 45.6333 161.162 49.4333 159.962 53.5C158.829 57.5667 157.895 61.8 157.162 66.2C156.495 70.5333 156.162 74.8333 156.162 79.1C156.162 83.4333 156.962 86.8 158.562 89.2C160.162 91.5333 162.462 92.7 165.462 92.7C167.395 92.7 169.329 91.9333 171.262 90.4C173.195 88.8667 175.062 86.7667 176.862 84.1C178.662 81.4333 180.362 78.3333 181.962 74.8C183.562 71.2 184.929 67.3333 186.062 63.2C187.262 59.0667 188.195 54.8 188.862 50.4C189.529 45.9333 189.862 41.5333 189.862 37.2C189.862 33 189.095 29.8 187.562 27.6C186.029 25.3333 183.795 24.2 180.862 24.2ZM229.787 98C226.92 98 224.32 97.3667 221.987 96.1C219.654 94.7667 217.654 92.9333 215.987 90.6C214.32 88.2667 213.02 85.4667 212.087 82.2C211.154 78.8667 210.687 75.2 210.687 71.2C210.687 64.8 211.754 58.5 213.887 52.3C216.02 46.0333 218.82 40.4333 222.287 35.5C225.82 30.5667 229.754 26.6 234.087 23.6C238.487 20.5333 242.954 19 247.487 19C250.354 19 252.954 19.6333 255.287 20.9C257.687 22.1 259.72 23.8333 261.387 26.1C263.054 28.3 264.354 30.9667 265.287 34.1C266.22 37.2333 266.687 40.7 266.687 44.5C266.687 48.7 266.187 52.9667 265.187 57.3C264.187 61.5667 262.787 65.7 260.987 69.7C259.254 73.6333 257.187 77.3333 254.787 80.8C252.387 84.2 249.82 87.2 247.087 89.8C244.354 92.3333 241.52 94.3333 238.587 95.8C235.654 97.2667 232.72 98 229.787 98ZM246.487 24.2C244.554 24.2 242.587 24.9667 240.587 26.5C238.654 28.0333 236.754 30.1333 234.887 32.8C233.087 35.4 231.387 38.5 229.787 42.1C228.187 45.6333 226.787 49.4333 225.587 53.5C224.454 57.5667 223.52 61.8 222.787 66.2C222.12 70.5333 221.787 74.8333 221.787 79.1C221.787 83.4333 222.587 86.8 224.187 89.2C225.787 91.5333 228.087 92.7 231.087 92.7C233.02 92.7 234.954 91.9333 236.887 90.4C238.82 88.8667 240.687 86.7667 242.487 84.1C244.287 81.4333 245.987 78.3333 247.587 74.8C249.187 71.2 250.554 67.3333 251.687 63.2C252.887 59.0667 253.82 54.8 254.487 50.4C255.154 45.9333 255.487 41.5333 255.487 37.2C255.487 33 254.72 29.8 253.187 27.6C251.654 25.3333 249.42 24.2 246.487 24.2ZM295.412 98C292.545 98 289.945 97.3667 287.612 96.1C285.279 94.7667 283.279 92.9333 281.612 90.6C279.945 88.2667 278.645 85.4667 277.712 82.2C276.779 78.8667 276.312 75.2 276.312 71.2C276.312 64.8 277.379 58.5 279.512 52.3C281.645 46.0333 284.445 40.4333 287.912 35.5C291.445 30.5667 295.379 26.6 299.712 23.6C304.112 20.5333 308.579 19 313.112 19C315.979 19 318.579 19.6333 320.912 20.9C323.312 22.1 325.345 23.8333 327.012 26.1C328.679 28.3 329.979 30.9667 330.912 34.1C331.845 37.2333 332.312 40.7 332.312 44.5C332.312 48.7 331.812 52.9667 330.812 57.3C329.812 61.5667 328.412 65.7 326.612 69.7C324.879 73.6333 322.812 77.3333 320.412 80.8C318.012 84.2 315.445 87.2 312.712 89.8C309.979 92.3333 307.145 94.3333 304.212 95.8C301.279 97.2667 298.345 98 295.412 98ZM312.112 24.2C310.179 24.2 308.212 24.9667 306.212 26.5C304.279 28.0333 302.379 30.1333 300.512 32.8C298.712 35.4 297.012 38.5 295.412 42.1C293.812 45.6333 292.412 49.4333 291.212 53.5C290.079 57.5667 289.145 61.8 288.412 66.2C287.745 70.5333 287.412 74.8333 287.412 79.1C287.412 83.4333 288.212 86.8 289.812 89.2C291.412 91.5333 293.712 92.7 296.712 92.7C298.645 92.7 300.579 91.9333 302.512 90.4C304.445 88.8667 306.312 86.7667 308.112 84.1C309.912 81.4333 311.612 78.3333 313.212 74.8C314.812 71.2 316.179 67.3333 317.312 63.2C318.512 59.0667 319.445 54.8 320.112 50.4C320.779 45.9333 321.112 41.5333 321.112 37.2C321.112 33 320.345 29.8 318.812 27.6C317.279 25.3333 315.045 24.2 312.112 24.2ZM361.337 86.6V65.7H340.537V60.7H361.337V39.8H366.537V60.7H387.337V65.7H366.537V86.6H361.337Z" fill="black"/>
<path d="M158.679 145.185C158.182 142.074 155.746 140.256 152.67 140.256C148.906 140.256 146.129 143.075 146.129 147.727C146.129 152.379 148.892 155.199 152.67 155.199C155.866 155.199 158.203 153.196 158.679 150.32L156.463 150.312C156.087 152.173 154.524 153.196 152.685 153.196C150.192 153.196 148.31 151.286 148.31 147.727C148.31 144.197 150.185 142.259 152.692 142.259C154.545 142.259 156.101 143.303 156.463 145.185H158.679ZM168.045 150.476C168.052 152.33 166.674 153.21 165.481 153.21C164.167 153.21 163.258 152.259 163.258 150.774V144.091H161.135V151.03C161.135 153.736 162.619 155.142 164.714 155.142C166.355 155.142 167.47 154.276 167.974 153.111H168.088V155H170.176V144.091H168.045V150.476ZM181.204 146.754C180.763 145.057 179.435 143.949 177.077 143.949C174.613 143.949 172.866 145.249 172.866 147.18C172.866 148.729 173.803 149.759 175.849 150.213L177.695 150.618C178.746 150.852 179.237 151.321 179.237 152.003C179.237 152.848 178.335 153.509 176.942 153.509C175.671 153.509 174.854 152.962 174.599 151.889L172.546 152.202C172.901 154.134 174.506 155.22 176.957 155.22C179.592 155.22 181.417 153.821 181.417 151.847C181.417 150.305 180.437 149.354 178.434 148.892L176.701 148.494C175.501 148.21 174.982 147.805 174.989 147.067C174.982 146.229 175.891 145.632 177.099 145.632C178.42 145.632 179.031 146.364 179.279 147.095L181.204 146.754ZM188.844 144.091H186.607V141.477H184.483V144.091H182.885V145.795H184.483V152.237C184.476 154.219 185.989 155.178 187.665 155.142C188.34 155.135 188.794 155.007 189.043 154.915L188.659 153.161C188.517 153.189 188.255 153.253 187.914 153.253C187.225 153.253 186.607 153.026 186.607 151.797V145.795H188.844V144.091ZM195.671 155.22C198.746 155.22 200.756 152.969 200.756 149.595C200.756 146.2 198.746 143.949 195.671 143.949C192.596 143.949 190.586 146.2 190.586 149.595C190.586 152.969 192.596 155.22 195.671 155.22ZM195.678 153.438C193.668 153.438 192.731 151.683 192.731 149.588C192.731 147.5 193.668 145.724 195.678 145.724C197.674 145.724 198.612 147.5 198.612 149.588C198.612 151.683 197.674 153.438 195.678 153.438ZM203.127 155H205.25V148.274C205.25 146.804 206.28 145.781 207.488 145.781C208.667 145.781 209.483 146.562 209.483 147.749V155H211.6V148.047C211.6 146.733 212.402 145.781 213.787 145.781C214.909 145.781 215.833 146.406 215.833 147.884V155H217.956V147.685C217.956 145.192 216.564 143.949 214.59 143.949C213.02 143.949 211.841 144.702 211.316 145.866H211.202C210.726 144.673 209.725 143.949 208.269 143.949C206.827 143.949 205.755 144.666 205.3 145.866H205.165V144.091H203.127V155ZM225.504 155.22C227.884 155.22 229.567 154.048 230.05 152.273L228.04 151.911C227.656 152.94 226.733 153.466 225.526 153.466C223.707 153.466 222.486 152.287 222.429 150.185H230.185V149.432C230.185 145.49 227.827 143.949 225.355 143.949C222.315 143.949 220.312 146.264 220.312 149.616C220.312 153.004 222.287 155.22 225.504 155.22ZM222.436 148.594C222.521 147.045 223.643 145.703 225.369 145.703C227.017 145.703 228.097 146.925 228.104 148.594H222.436ZM232.541 155H234.664V148.338C234.664 146.911 235.765 145.881 237.271 145.881C237.711 145.881 238.208 145.959 238.379 146.009V143.977C238.166 143.949 237.747 143.928 237.477 143.928C236.199 143.928 235.105 144.652 234.707 145.824H234.593V144.091H232.541V155ZM248.391 146.754C247.951 145.057 246.623 143.949 244.265 143.949C241.8 143.949 240.053 145.249 240.053 147.18C240.053 148.729 240.991 149.759 243.036 150.213L244.883 150.618C245.934 150.852 246.424 151.321 246.424 152.003C246.424 152.848 245.522 153.509 244.13 153.509C242.859 153.509 242.042 152.962 241.786 151.889L239.734 152.202C240.089 154.134 241.694 155.22 244.144 155.22C246.779 155.22 248.604 153.821 248.604 151.847C248.604 150.305 247.624 149.354 245.621 148.892L243.888 148.494C242.688 148.21 242.17 147.805 242.177 147.067C242.17 146.229 243.079 145.632 244.286 145.632C245.607 145.632 246.218 146.364 246.467 147.095L248.391 146.754Z" fill="#8E8C95"/>
</svg>
