<svg width="183" height="160" viewBox="0 0 183 160" fill="none" xmlns="http://www.w3.org/2000/svg">
<rect y="86" width="183" height="19" fill="#FFDEA7"/>
<path d="M41.1449 75.1C41.1449 72.9 40.8449 70.8667 40.2449 69C39.7116 67.0667 38.9449 65.4 37.9449 64C36.9449 62.6 35.7449 61.5 34.3449 60.7C33.0116 59.9 31.5449 59.5 29.9449 59.5C28.8116 59.5 27.4783 59.6333 25.9449 59.9C24.4783 60.1667 23.1783 60.3 22.0449 60.3C19.9116 60.3 18.8449 59.6333 18.8449 58.3C18.8449 57.1667 19.5116 56.3667 20.8449 55.9C22.1783 55.3667 23.8116 54.9 25.7449 54.5C27.7449 54.1 29.8783 53.6 32.1449 53C34.4783 52.4 36.6116 51.4333 38.5449 50.1C40.5449 48.7667 42.2116 46.9333 43.5449 44.6C44.8783 42.2667 45.5449 39.1333 45.5449 35.2C45.5449 31.4 44.8116 28.6 43.3449 26.8C41.9449 25 39.6783 24.1 36.5449 24.1C33.0116 24.1 30.1449 25.0667 27.9449 27C25.7449 28.9333 24.6449 31.4 24.6449 34.4C24.6449 36.4667 25.1783 38.0667 26.2449 39.2C27.3783 40.3333 28.9116 40.9 30.8449 40.9C30.3116 42.0333 29.4116 42.9667 28.1449 43.7C26.9449 44.3667 25.5783 44.7 24.0449 44.7C21.5116 44.7 19.4449 43.8667 17.8449 42.2C16.3116 40.4667 15.5449 38.2 15.5449 35.4C15.5449 33.0667 16.0783 30.9 17.1449 28.9C18.2783 26.9 19.8116 25.1667 21.7449 23.7C23.6783 22.2333 25.9783 21.1 28.6449 20.3C31.3116 19.4333 34.2116 19 37.3449 19C43.2116 19 47.8783 20.4 51.3449 23.2C54.8116 25.9333 56.5449 29.6667 56.5449 34.4C56.5449 36.7333 56.0783 39.0333 55.1449 41.3C54.2116 43.5 52.9116 45.5667 51.2449 47.5C49.6449 49.3667 47.7449 51 45.5449 52.4C43.3449 53.7333 40.9783 54.7 38.4449 55.3V55.9C43.0449 57.1 46.6116 59.2667 49.1449 62.4C51.6783 65.4667 52.9449 69.1667 52.9449 73.5C52.9449 76.9 52.1449 80.1 50.5449 83.1C49.0116 86.0333 46.8783 88.6 44.1449 90.8C41.4783 93 38.3116 94.7667 34.6449 96.1C31.0449 97.3667 27.2116 98 23.1449 98C20.0783 98 17.2783 97.6333 14.7449 96.9C12.2116 96.1 10.0116 95.0333 8.14492 93.7C6.34492 92.3667 4.94492 90.7667 3.94492 88.9C2.94492 86.9667 2.44492 84.8333 2.44492 82.5C2.44492 80.6333 2.77826 78.8667 3.44492 77.2C4.11159 75.4667 4.97826 73.9667 6.04492 72.7C7.17826 71.4333 8.47826 70.4333 9.94492 69.7C11.4783 68.9667 13.0783 68.6 14.7449 68.6C16.4783 68.6 17.9783 69 19.2449 69.8C20.5116 70.6 21.2783 71.6667 21.5449 73C20.3449 73 19.1783 73.3 18.0449 73.9C16.9783 74.4333 16.0116 75.2 15.1449 76.2C14.3449 77.1333 13.6783 78.2333 13.1449 79.5C12.6783 80.7667 12.4449 82.1333 12.4449 83.6C12.4449 86.5333 13.4449 88.8 15.4449 90.4C17.4449 92 20.2783 92.8 23.9449 92.8C26.5449 92.8 28.8783 92.4 30.9449 91.6C33.0783 90.7333 34.8783 89.5333 36.3449 88C37.8783 86.4 39.0449 84.5333 39.8449 82.4C40.7116 80.2 41.1449 77.7667 41.1449 75.1ZM73.0637 46.9C73.0637 43.1667 73.797 39.6333 75.2637 36.3C76.797 32.9 78.8303 29.9333 81.3637 27.4C83.897 24.8 86.797 22.7667 90.0637 21.3C93.397 19.7667 96.897 19 100.564 19C103.83 19 106.764 19.6667 109.364 21C112.03 22.2667 114.264 24.1333 116.064 26.6C117.93 29 119.364 31.9333 120.364 35.4C121.364 38.8667 121.864 42.7333 121.864 47C121.864 53.6 120.764 59.9667 118.564 66.1C116.364 72.2333 113.397 77.6667 109.664 82.4C105.997 87.1333 101.764 90.9333 96.9637 93.8C92.2303 96.6 87.297 98 82.1637 98C79.9637 98 77.897 97.7333 75.9637 97.2C74.097 96.6667 72.4637 95.9333 71.0637 95C69.6637 94 68.5637 92.8667 67.7637 91.6C66.9637 90.2667 66.5637 88.8333 66.5637 87.3C66.5637 85.5667 67.0303 84.2 67.9637 83.2C68.9637 82.1333 70.297 81.6 71.9637 81.6C73.3637 81.6 74.5303 82.0667 75.4637 83C76.397 83.8667 76.8637 85.2333 76.8637 87.1C76.8637 89.2333 77.2303 90.8333 77.9637 91.9C78.697 92.9667 80.097 93.5 82.1637 93.5C84.8303 93.5 87.4637 92.7667 90.0637 91.3C92.6637 89.8333 95.097 87.8 97.3637 85.2C99.697 82.6 101.764 79.5 103.564 75.9C105.364 72.3 106.83 68.3333 107.964 64L107.664 63.8C103.33 66.4667 98.7637 67.8 93.9637 67.8C90.8303 67.8 87.9637 67.3 85.3637 66.3C82.8303 65.3 80.6303 63.9 78.7637 62.1C76.9637 60.2333 75.5637 58.0333 74.5637 55.5C73.5637 52.9 73.0637 50.0333 73.0637 46.9ZM95.7637 62.9C98.1637 62.9 100.33 62.3667 102.264 61.3C104.264 60.1667 105.964 58.6333 107.364 56.7C108.764 54.7 109.83 52.3 110.564 49.5C111.364 46.7 111.764 43.6 111.764 40.2C111.764 34.8 110.864 30.6667 109.064 27.8C107.264 24.9333 104.63 23.5 101.164 23.5C98.8303 23.5 96.6637 24.1333 94.6637 25.4C92.7303 26.6 91.0303 28.3 89.5637 30.5C88.1637 32.6333 87.0303 35.1667 86.1637 38.1C85.3637 40.9667 84.9637 44.1 84.9637 47.5C84.9637 57.7667 88.5637 62.9 95.7637 62.9ZM151.443 86.6V65.7H130.643V60.7H151.443V39.8H156.643V60.7H177.443V65.7H156.643V86.6H151.443Z" fill="black"/>
<path d="M28.598 155H34.1733C37.554 155 39.081 153.317 39.081 151.087C39.081 148.835 37.5043 147.564 36.0625 147.486V147.344C37.3977 147.003 38.5128 146.094 38.5128 144.276C38.5128 142.124 37.0213 140.455 33.9247 140.455H28.598V155ZM30.7926 153.118V148.459H34.0384C35.7997 148.459 36.9006 149.595 36.9006 150.98C36.9006 152.202 36.0696 153.118 33.9602 153.118H30.7926ZM30.7926 146.747V142.322H33.7898C35.5298 142.322 36.3608 143.239 36.3608 144.446C36.3608 145.852 35.2102 146.747 33.733 146.747H30.7926ZM41.5135 155H43.6371V148.338C43.6371 146.911 44.7379 145.881 46.2436 145.881C46.6839 145.881 47.1811 145.959 47.3516 146.009V143.977C47.1385 143.949 46.7195 143.928 46.4496 143.928C45.1712 143.928 44.0774 144.652 43.6797 145.824H43.5661V144.091H41.5135V155ZM52.2663 155.241C54.0703 155.241 55.0859 154.325 55.4908 153.509H55.576V155H57.6499V147.756C57.6499 144.581 55.1499 143.949 53.4169 143.949C51.4425 143.949 49.6243 144.744 48.9141 146.733L50.9098 147.188C51.2223 146.413 52.0178 145.668 53.4453 145.668C54.8161 145.668 55.5192 146.385 55.5192 147.621V147.67C55.5192 148.445 54.7237 148.43 52.7635 148.658C50.6967 148.899 48.5803 149.439 48.5803 151.918C48.5803 154.062 50.1925 155.241 52.2663 155.241ZM52.728 153.537C51.5277 153.537 50.6612 152.997 50.6612 151.946C50.6612 150.81 51.6697 150.405 52.8984 150.241C53.5874 150.149 55.2209 149.964 55.5263 149.659V151.065C55.5263 152.358 54.4964 153.537 52.728 153.537ZM62.6019 148.523C62.6019 146.783 63.6673 145.788 65.1445 145.788C66.5863 145.788 67.4599 146.733 67.4599 148.317V155H69.5835V148.061C69.5835 145.362 68.0991 143.949 65.869 143.949C64.2283 143.949 63.1559 144.709 62.6516 145.866H62.5167V144.091H60.4783V155H62.6019V148.523ZM77.0266 155.22C79.6048 155.22 81.2738 153.672 81.5082 151.548H79.4414C79.1715 152.727 78.2553 153.423 77.0408 153.423C75.244 153.423 74.0863 151.925 74.0863 149.545C74.0863 147.209 75.2653 145.739 77.0408 145.739C78.3903 145.739 79.2141 146.591 79.4414 147.614H81.5082C81.2809 145.412 79.484 143.949 77.0053 143.949C73.93 143.949 71.9414 146.264 71.9414 149.595C71.9414 152.884 73.859 155.22 77.0266 155.22ZM85.9027 148.523C85.9027 146.783 87.0036 145.788 88.5163 145.788C89.9794 145.788 90.853 146.719 90.853 148.317V155H92.9766V148.061C92.9766 145.341 91.4851 143.949 89.2408 143.949C87.5433 143.949 86.5206 144.688 86.0092 145.866H85.8743V140.455H83.7791V155H85.9027V148.523ZM105.699 155.22C108.774 155.22 110.784 152.969 110.784 149.595C110.784 146.2 108.774 143.949 105.699 143.949C102.623 143.949 100.613 146.2 100.613 149.595C100.613 152.969 102.623 155.22 105.699 155.22ZM105.706 153.438C103.696 153.438 102.758 151.683 102.758 149.588C102.758 147.5 103.696 145.724 105.706 145.724C107.701 145.724 108.639 147.5 108.639 149.588C108.639 151.683 107.701 153.438 105.706 153.438ZM118.346 144.091H115.995V143.111C115.995 142.145 116.393 141.619 117.43 141.619C117.87 141.619 118.183 141.719 118.381 141.783L118.879 140.064C118.58 139.95 117.962 139.773 117.103 139.773C115.377 139.773 113.864 140.781 113.864 142.827V144.091H112.181V145.795H113.864V155H115.995V145.795H118.346V144.091ZM125.729 144.091H123.378V143.111C123.378 142.145 123.776 141.619 124.812 141.619C125.253 141.619 125.565 141.719 125.764 141.783L126.261 140.064C125.963 139.95 125.345 139.773 124.486 139.773C122.76 139.773 121.247 140.781 121.247 142.827V144.091H119.564V145.795H121.247V155H123.378V145.795H125.729V144.091ZM127.92 155H130.043V144.091H127.92V155ZM128.992 142.408C129.724 142.408 130.335 141.839 130.335 141.143C130.335 140.447 129.724 139.872 128.992 139.872C128.254 139.872 127.65 140.447 127.65 141.143C127.65 141.839 128.254 142.408 128.992 142.408ZM137.495 155.22C140.074 155.22 141.743 153.672 141.977 151.548H139.91C139.64 152.727 138.724 153.423 137.51 153.423C135.713 153.423 134.555 151.925 134.555 149.545C134.555 147.209 135.734 145.739 137.51 145.739C138.859 145.739 139.683 146.591 139.91 147.614H141.977C141.75 145.412 139.953 143.949 137.474 143.949C134.399 143.949 132.41 146.264 132.41 149.595C132.41 152.884 134.328 155.22 137.495 155.22ZM148.95 155.22C151.329 155.22 153.012 154.048 153.495 152.273L151.485 151.911C151.102 152.94 150.178 153.466 148.971 153.466C147.153 153.466 145.931 152.287 145.874 150.185H153.63V149.432C153.63 145.49 151.272 143.949 148.8 143.949C145.761 143.949 143.758 146.264 143.758 149.616C143.758 153.004 145.732 155.22 148.95 155.22ZM145.881 148.594C145.967 147.045 147.089 145.703 148.815 145.703C150.462 145.703 151.542 146.925 151.549 148.594H145.881Z" fill="#8E8C95"/>
</svg>
