<svg width="266" height="160" viewBox="0 0 266 160" fill="none" xmlns="http://www.w3.org/2000/svg">
<rect y="86" width="266" height="19" fill="#FFDEA7"/>
<path d="M31.9988 70.2C31.3322 72.8667 30.6988 75.4 30.0988 77.8C29.5655 80.2 29.2988 82.3667 29.2988 84.3C29.2988 85.6333 29.4655 86.8333 29.7988 87.9C30.1322 88.9667 30.6988 89.9 31.4988 90.7C32.3655 91.4333 33.4655 92 34.7988 92.4C36.1988 92.8 37.9322 93 39.9988 93L38.8988 97H1.89883L2.99883 93C5.33216 93 7.3655 92.8 9.09883 92.4C10.8988 92 12.4322 91.2667 13.6988 90.2C15.0322 89.1333 16.1655 87.7 17.0988 85.9C18.0322 84.1 18.8322 81.8333 19.4988 79.1L29.6988 38C29.7655 37.6667 29.7988 37.3667 29.7988 37.1C29.8655 36.8333 29.8988 36.6 29.8988 36.4C29.8988 35.5333 29.3988 35.1 28.3988 35.1C27.2655 35.1 25.4988 35.3667 23.0988 35.9C20.7655 36.4333 17.6655 36.7 13.7988 36.7L14.3988 32.5C17.2655 32.5 19.9322 32.1333 22.3988 31.4C24.8655 30.6667 27.1988 29.6667 29.3988 28.4C31.5988 27.1333 33.6655 25.7 35.5988 24.1C37.5322 22.5 39.3988 20.8 41.1988 19H44.8988L31.9988 70.2ZM56.7621 96.7C55.9621 96.9 55.2621 97 54.6621 97C52.9288 97 51.6288 96.4667 50.7621 95.4C49.9621 94.3333 49.5621 92.9333 49.5621 91.2C49.5621 89.2 50.2288 87.5 51.5621 86.1C52.8954 84.7 54.5288 84 56.4621 84C58.5288 84 60.2288 84.7 61.5621 86.1C62.8954 87.5 63.5621 89.1667 63.5621 91.1C63.5621 94.8333 62.2288 98.7667 59.5621 102.9C56.8954 107.033 53.0621 110.9 48.0621 114.5L45.7621 111.3C49.3621 108.767 52.0954 106.167 53.9621 103.5C55.8288 100.9 56.7621 98.6333 56.7621 96.7ZM99.1973 98C96.3306 98 93.7306 97.3667 91.3973 96.1C89.0639 94.7667 87.0639 92.9333 85.3973 90.6C83.7306 88.2667 82.4306 85.4667 81.4973 82.2C80.5639 78.8667 80.0973 75.2 80.0973 71.2C80.0973 64.8 81.1639 58.5 83.2973 52.3C85.4306 46.0333 88.2306 40.4333 91.6973 35.5C95.2306 30.5667 99.1639 26.6 103.497 23.6C107.897 20.5333 112.364 19 116.897 19C119.764 19 122.364 19.6333 124.697 20.9C127.097 22.1 129.131 23.8333 130.797 26.1C132.464 28.3 133.764 30.9667 134.697 34.1C135.631 37.2333 136.097 40.7 136.097 44.5C136.097 48.7 135.597 52.9667 134.597 57.3C133.597 61.5667 132.197 65.7 130.397 69.7C128.664 73.6333 126.597 77.3333 124.197 80.8C121.797 84.2 119.231 87.2 116.497 89.8C113.764 92.3333 110.931 94.3333 107.997 95.8C105.064 97.2667 102.131 98 99.1973 98ZM115.897 24.2C113.964 24.2 111.997 24.9667 109.997 26.5C108.064 28.0333 106.164 30.1333 104.297 32.8C102.497 35.4 100.797 38.5 99.1973 42.1C97.5973 45.6333 96.1973 49.4333 94.9973 53.5C93.8639 57.5667 92.9306 61.8 92.1973 66.2C91.5306 70.5333 91.1973 74.8333 91.1973 79.1C91.1973 83.4333 91.9973 86.8 93.5973 89.2C95.1973 91.5333 97.4973 92.7 100.497 92.7C102.431 92.7 104.364 91.9333 106.297 90.4C108.231 88.8667 110.097 86.7667 111.897 84.1C113.697 81.4333 115.397 78.3333 116.997 74.8C118.597 71.2 119.964 67.3333 121.097 63.2C122.297 59.0667 123.231 54.8 123.897 50.4C124.564 45.9333 124.897 41.5333 124.897 37.2C124.897 33 124.131 29.8 122.597 27.6C121.064 25.3333 118.831 24.2 115.897 24.2ZM150.122 46.9C150.122 43.1667 150.856 39.6333 152.322 36.3C153.856 32.9 155.889 29.9333 158.422 27.4C160.956 24.8 163.856 22.7667 167.122 21.3C170.456 19.7667 173.956 19 177.622 19C180.889 19 183.822 19.6667 186.422 21C189.089 22.2667 191.322 24.1333 193.122 26.6C194.989 29 196.422 31.9333 197.422 35.4C198.422 38.8667 198.922 42.7333 198.922 47C198.922 53.6 197.822 59.9667 195.622 66.1C193.422 72.2333 190.456 77.6667 186.722 82.4C183.056 87.1333 178.822 90.9333 174.022 93.8C169.289 96.6 164.356 98 159.222 98C157.022 98 154.956 97.7333 153.022 97.2C151.156 96.6667 149.522 95.9333 148.122 95C146.722 94 145.622 92.8667 144.822 91.6C144.022 90.2667 143.622 88.8333 143.622 87.3C143.622 85.5667 144.089 84.2 145.022 83.2C146.022 82.1333 147.356 81.6 149.022 81.6C150.422 81.6 151.589 82.0667 152.522 83C153.456 83.8667 153.922 85.2333 153.922 87.1C153.922 89.2333 154.289 90.8333 155.022 91.9C155.756 92.9667 157.156 93.5 159.222 93.5C161.889 93.5 164.522 92.7667 167.122 91.3C169.722 89.8333 172.156 87.8 174.422 85.2C176.756 82.6 178.822 79.5 180.622 75.9C182.422 72.3 183.889 68.3333 185.022 64L184.722 63.8C180.389 66.4667 175.822 67.8 171.022 67.8C167.889 67.8 165.022 67.3 162.422 66.3C159.889 65.3 157.689 63.9 155.822 62.1C154.022 60.2333 152.622 58.0333 151.622 55.5C150.622 52.9 150.122 50.0333 150.122 46.9ZM172.822 62.9C175.222 62.9 177.389 62.3667 179.322 61.3C181.322 60.1667 183.022 58.6333 184.422 56.7C185.822 54.7 186.889 52.3 187.622 49.5C188.422 46.7 188.822 43.6 188.822 40.2C188.822 34.8 187.922 30.6667 186.122 27.8C184.322 24.9333 181.689 23.5 178.222 23.5C175.889 23.5 173.722 24.1333 171.722 25.4C169.789 26.6 168.089 28.3 166.622 30.5C165.222 32.6333 164.089 35.1667 163.222 38.1C162.422 40.9667 162.022 44.1 162.022 47.5C162.022 57.7667 165.622 62.9 172.822 62.9ZM218.701 87.2H239.101C240.701 87.2 242.101 87.1 243.301 86.9C244.568 86.6333 245.701 86.2333 246.701 85.7C247.768 85.1 248.735 84.3333 249.601 83.4C250.468 82.4 251.368 81.1667 252.301 79.7H256.001L249.701 97H203.301L204.201 91.7C212.535 85.0333 219.568 79.1 225.301 73.9C231.101 68.6333 235.768 63.8667 239.301 59.6C242.901 55.2667 245.468 51.3 247.001 47.7C248.601 44.0333 249.401 40.4667 249.401 37C249.401 33.1333 248.401 30.0333 246.401 27.7C244.401 25.3667 241.635 24.2 238.101 24.2C236.168 24.2 234.335 24.5667 232.601 25.3C230.935 26.0333 229.468 27.0333 228.201 28.3C226.935 29.5 225.935 30.9333 225.201 32.6C224.535 34.2667 224.201 36.0333 224.201 37.9C224.201 40.9 225.001 43.2333 226.601 44.9C228.268 46.5667 230.601 47.4 233.601 47.4C233.001 49.0667 231.935 50.3667 230.401 51.3C228.868 52.2333 227.068 52.7 225.001 52.7C221.735 52.7 219.101 51.5667 217.101 49.3C215.101 47.0333 214.101 44.0667 214.101 40.4C214.101 37.4 214.768 34.6 216.101 32C217.501 29.4 219.368 27.1333 221.701 25.2C224.101 23.2667 226.868 21.7333 230.001 20.6C233.201 19.4667 236.601 18.9 240.201 18.9C243.335 18.9 246.201 19.3333 248.801 20.2C251.401 21.0667 253.601 22.3 255.401 23.9C257.268 25.5 258.701 27.4333 259.701 29.7C260.701 31.9667 261.201 34.5 261.201 37.3C261.201 40.7 260.401 44.1667 258.801 47.7C257.268 51.2333 254.801 54.9667 251.401 58.9C248.001 62.8333 243.601 67.1 238.201 71.7C232.868 76.2333 226.368 81.2333 218.701 86.7V87.2Z" fill="black"/>
<path d="M51.598 155H53.7926V149.886H56.7756C60.1491 149.886 61.8182 147.848 61.8182 145.163C61.8182 142.486 60.1634 140.455 56.7827 140.455H51.598V155ZM53.7926 148.026V142.337H56.5483C58.7216 142.337 59.6094 143.516 59.6094 145.163C59.6094 146.811 58.7216 148.026 56.5767 148.026H53.7926ZM67.2976 155.241C69.1016 155.241 70.1172 154.325 70.522 153.509H70.6072V155H72.6811V147.756C72.6811 144.581 70.1811 143.949 68.4482 143.949C66.4737 143.949 64.6555 144.744 63.9453 146.733L65.9411 147.188C66.2536 146.413 67.049 145.668 68.4766 145.668C69.8473 145.668 70.5504 146.385 70.5504 147.621V147.67C70.5504 148.445 69.755 148.43 67.7947 148.658C65.728 148.899 63.6115 149.439 63.6115 151.918C63.6115 154.062 65.2237 155.241 67.2976 155.241ZM67.7592 153.537C66.5589 153.537 65.6925 152.997 65.6925 151.946C65.6925 150.81 66.701 150.405 67.9297 150.241C68.6186 150.149 70.2521 149.964 70.5575 149.659V151.065C70.5575 152.358 69.5277 153.537 67.7592 153.537ZM75.5096 155H77.6332V148.338C77.6332 146.911 78.734 145.881 80.2397 145.881C80.68 145.881 81.1772 145.959 81.3477 146.009V143.977C81.1346 143.949 80.7156 143.928 80.4457 143.928C79.1673 143.928 78.0735 144.652 77.6758 145.824H77.5621V144.091H75.5096V155ZM88.9222 144.091H86.685V141.477H84.5614V144.091H82.9634V145.795H84.5614V152.237C84.5543 154.219 86.0671 155.178 87.7433 155.142C88.418 155.135 88.8725 155.007 89.1211 154.915L88.7376 153.161C88.5955 153.189 88.3327 153.253 87.9918 153.253C87.3029 153.253 86.685 153.026 86.685 151.797V145.795H88.9222V144.091ZM93.3949 148.523C93.3949 146.783 94.4602 145.788 95.9375 145.788C97.3793 145.788 98.2528 146.733 98.2528 148.317V155H100.376V148.061C100.376 145.362 98.892 143.949 96.6619 143.949C95.0213 143.949 93.9489 144.709 93.4446 145.866H93.3097V144.091H91.2713V155H93.3949V148.523ZM107.926 155.22C110.305 155.22 111.989 154.048 112.472 152.273L110.462 151.911C110.078 152.94 109.155 153.466 107.947 153.466C106.129 153.466 104.908 152.287 104.851 150.185H112.607V149.432C112.607 145.49 110.249 143.949 107.777 143.949C104.737 143.949 102.734 146.264 102.734 149.616C102.734 153.004 104.709 155.22 107.926 155.22ZM104.858 148.594C104.943 147.045 106.065 145.703 107.791 145.703C109.439 145.703 110.518 146.925 110.526 148.594H104.858ZM114.963 155H117.086V148.338C117.086 146.911 118.187 145.881 119.693 145.881C120.133 145.881 120.63 145.959 120.801 146.009V143.977C120.588 143.949 120.169 143.928 119.899 143.928C118.62 143.928 117.527 144.652 117.129 145.824H117.015V144.091H114.963V155ZM132.527 155.22C135.105 155.22 136.774 153.672 137.008 151.548H134.941C134.672 152.727 133.755 153.423 132.541 153.423C130.744 153.423 129.586 151.925 129.586 149.545C129.586 147.209 130.765 145.739 132.541 145.739C133.89 145.739 134.714 146.591 134.941 147.614H137.008C136.781 145.412 134.984 143.949 132.505 143.949C129.43 143.949 127.441 146.264 127.441 149.595C127.441 152.884 129.359 155.22 132.527 155.22ZM143.874 155.22C146.95 155.22 148.96 152.969 148.96 149.595C148.96 146.2 146.95 143.949 143.874 143.949C140.799 143.949 138.789 146.2 138.789 149.595C138.789 152.969 140.799 155.22 143.874 155.22ZM143.881 153.438C141.871 153.438 140.934 151.683 140.934 149.588C140.934 147.5 141.871 145.724 143.881 145.724C145.877 145.724 146.815 147.5 146.815 149.588C146.815 151.683 145.877 153.438 143.881 153.438ZM151.33 155H153.453V148.274C153.453 146.804 154.483 145.781 155.691 145.781C156.87 145.781 157.686 146.562 157.686 147.749V155H159.803V148.047C159.803 146.733 160.605 145.781 161.99 145.781C163.113 145.781 164.036 146.406 164.036 147.884V155H166.159V147.685C166.159 145.192 164.767 143.949 162.793 143.949C161.223 143.949 160.044 144.702 159.519 145.866H159.405C158.929 144.673 157.928 143.949 156.472 143.949C155.03 143.949 153.958 144.666 153.503 145.866H153.368V144.091H151.33V155ZM169.006 159.091H171.129V153.303H171.257C171.641 153.999 172.422 155.213 174.411 155.213C177.053 155.213 178.97 153.097 178.97 149.567C178.97 146.03 177.024 143.949 174.389 143.949C172.365 143.949 171.634 145.185 171.257 145.859H171.08V144.091H169.006V159.091ZM171.087 149.545C171.087 147.266 172.081 145.753 173.935 145.753C175.859 145.753 176.825 147.379 176.825 149.545C176.825 151.733 175.831 153.402 173.935 153.402C172.109 153.402 171.087 151.839 171.087 149.545ZM184.524 155.241C186.328 155.241 187.344 154.325 187.749 153.509H187.834V155H189.908V147.756C189.908 144.581 187.408 143.949 185.675 143.949C183.7 143.949 181.882 144.744 181.172 146.733L183.168 147.188C183.48 146.413 184.276 145.668 185.703 145.668C187.074 145.668 187.777 146.385 187.777 147.621V147.67C187.777 148.445 186.982 148.43 185.021 148.658C182.955 148.899 180.838 149.439 180.838 151.918C180.838 154.062 182.45 155.241 184.524 155.241ZM184.986 153.537C183.786 153.537 182.919 152.997 182.919 151.946C182.919 150.81 183.928 150.405 185.156 150.241C185.845 150.149 187.479 149.964 187.784 149.659V151.065C187.784 152.358 186.754 153.537 184.986 153.537ZM194.86 148.523C194.86 146.783 195.925 145.788 197.402 145.788C198.844 145.788 199.718 146.733 199.718 148.317V155H201.841V148.061C201.841 145.362 200.357 143.949 198.127 143.949C196.486 143.949 195.414 144.709 194.909 145.866H194.775V144.091H192.736V155H194.86V148.523ZM205.641 159.091C207.395 159.091 208.503 158.175 209.135 156.456L213.645 144.112L211.351 144.091L208.588 152.557H208.475L205.712 144.091H203.439L207.431 155.142L207.168 155.866C206.628 157.315 205.868 157.436 204.703 157.116L204.192 158.857C204.448 158.97 205.002 159.091 205.641 159.091Z" fill="#8E8C95"/>
</svg>
