<svg width="705" height="534" viewBox="0 0 705 534" fill="none" xmlns="http://www.w3.org/2000/svg">
<rect width="705" height="508" fill="#F5F6F9"/>
<path d="M562.518 31L541.299 72.6316" stroke="black" stroke-width="2" stroke-linejoin="round"/>
<path d="M661.046 154.238L596.901 126.62" stroke="black" stroke-width="2" stroke-linejoin="round"/>
<g filter="url(#filter0_d)">
<rect x="32" y="28" width="266" height="212" rx="12" fill="white"/>
<rect x="48" y="197" width="48" height="19" rx="5" fill="#C0EEF5"/>
<circle cx="60" cy="64" r="12" fill="#D1D0D6"/>
<path d="M85.0043 70H86.8487V66.5597H88.7976C91.1491 66.5597 92.4119 65.1477 92.4119 63.1889C92.4119 61.245 91.1641 59.8182 88.8224 59.8182H85.0043V70ZM86.8487 65.0433V61.3594H88.5391C89.9212 61.3594 90.5327 62.1051 90.5327 63.1889C90.5327 64.2727 89.9212 65.0433 88.549 65.0433H86.8487ZM93.9345 70H95.7342V65.5107C95.7342 64.5412 96.465 63.8551 97.4544 63.8551C97.7576 63.8551 98.1355 63.9098 98.2896 63.9595V62.304C98.1255 62.2741 97.8422 62.2543 97.6433 62.2543C96.7683 62.2543 96.0375 62.7514 95.7591 63.6364H95.6795V62.3636H93.9345V70ZM102.502 70.1491C104.739 70.1491 106.161 68.5732 106.161 66.2116C106.161 63.8452 104.739 62.2642 102.502 62.2642C100.265 62.2642 98.8427 63.8452 98.8427 66.2116C98.8427 68.5732 100.265 70.1491 102.502 70.1491ZM102.512 68.7074C101.274 68.7074 100.667 67.6037 100.667 66.2067C100.667 64.8097 101.274 63.6911 102.512 63.6911C103.73 63.6911 104.336 64.8097 104.336 66.2067C104.336 67.6037 103.73 68.7074 102.512 68.7074ZM110.522 70.1342C111.835 70.1342 112.426 69.3537 112.71 68.7969H112.819V70H114.589V59.8182H112.784V63.6264H112.71C112.436 63.0746 111.874 62.2642 110.527 62.2642C108.762 62.2642 107.375 63.6463 107.375 66.1918C107.375 68.7074 108.722 70.1342 110.522 70.1342ZM111.024 68.6577C109.836 68.6577 109.21 67.6136 109.21 66.1818C109.21 64.7599 109.826 63.7408 111.024 63.7408C112.183 63.7408 112.819 64.7003 112.819 66.1818C112.819 67.6634 112.173 68.6577 111.024 68.6577ZM121.374 66.7884C121.374 67.9517 120.544 68.5284 119.748 68.5284C118.883 68.5284 118.306 67.9169 118.306 66.9474V62.3636H116.507V67.2259C116.507 69.0604 117.551 70.0994 119.052 70.0994C120.196 70.0994 121.001 69.4979 121.349 68.6428H121.429V70H123.174V62.3636H121.374V66.7884ZM128.355 70.1491C130.274 70.1491 131.497 69.0107 131.627 67.3899H129.906C129.752 68.2102 129.161 68.6825 128.37 68.6825C127.247 68.6825 126.521 67.7429 126.521 66.1818C126.521 64.6406 127.262 63.7159 128.37 63.7159C129.235 63.7159 129.767 64.2727 129.906 65.0085H131.627C131.502 63.353 130.21 62.2642 128.345 62.2642C126.108 62.2642 124.696 63.88 124.696 66.2116C124.696 68.5234 126.073 70.1491 128.355 70.1491ZM136.918 62.3636H135.411V60.5341H133.612V62.3636H132.528V63.7557H133.612V68.0014C133.602 69.4382 134.646 70.1442 135.998 70.1044C136.51 70.0895 136.863 69.9901 137.057 69.9254L136.754 68.5185C136.654 68.5433 136.45 68.5881 136.227 68.5881C135.774 68.5881 135.411 68.429 135.411 67.7031V63.7557H136.918V62.3636ZM141.975 59.8182V70H143.745V62.9901H143.839L146.653 69.9702H147.976L150.79 63.005H150.884V70H152.654V59.8182H150.397L147.374 67.196H147.255L144.232 59.8182H141.975ZM156.78 70.1541C157.979 70.1541 158.694 69.5923 159.023 68.951H159.082V70H160.812V64.8892C160.812 62.8707 159.167 62.2642 157.71 62.2642C156.104 62.2642 154.871 62.9801 154.474 64.3722L156.154 64.6108C156.333 64.0888 156.84 63.6413 157.72 63.6413C158.555 63.6413 159.013 64.0689 159.013 64.8196V64.8494C159.013 65.3665 158.471 65.3913 157.123 65.5355C155.642 65.6946 154.225 66.1371 154.225 67.8572C154.225 69.3587 155.324 70.1541 156.78 70.1541ZM157.248 68.8317C156.497 68.8317 155.96 68.4886 155.96 67.8274C155.96 67.1364 156.562 66.848 157.367 66.7337C157.839 66.669 158.784 66.5497 159.018 66.3608V67.2607C159.018 68.1108 158.331 68.8317 157.248 68.8317ZM164.422 65.5256C164.422 64.4219 165.088 63.7855 166.037 63.7855C166.967 63.7855 167.524 64.397 167.524 65.4162V70H169.324V65.1378C169.329 63.3082 168.285 62.2642 166.709 62.2642C165.565 62.2642 164.78 62.8111 164.432 63.6612H164.342V62.3636H162.622V70H164.422V65.5256ZM173.351 70.1541C174.549 70.1541 175.265 69.5923 175.593 68.951H175.653V70H177.383V64.8892C177.383 62.8707 175.737 62.2642 174.28 62.2642C172.675 62.2642 171.442 62.9801 171.044 64.3722L172.724 64.6108C172.903 64.0888 173.41 63.6413 174.29 63.6413C175.126 63.6413 175.583 64.0689 175.583 64.8196V64.8494C175.583 65.3665 175.041 65.3913 173.694 65.5355C172.212 65.6946 170.795 66.1371 170.795 67.8572C170.795 69.3587 171.894 70.1541 173.351 70.1541ZM173.818 68.8317C173.067 68.8317 172.53 68.4886 172.53 67.8274C172.53 67.1364 173.132 66.848 173.937 66.7337C174.41 66.669 175.354 66.5497 175.588 66.3608V67.2607C175.588 68.1108 174.902 68.8317 173.818 68.8317ZM182.513 73.0227C184.577 73.0227 186.098 72.0781 186.098 70.1243V62.3636H184.323V63.6264H184.224C183.95 63.0746 183.378 62.2642 182.031 62.2642C180.266 62.2642 178.879 63.6463 178.879 66.157C178.879 68.6477 180.266 69.8906 182.026 69.8906C183.334 69.8906 183.945 69.1896 184.224 68.6278H184.313V70.0746C184.313 71.1982 183.567 71.6605 182.543 71.6605C181.459 71.6605 180.982 71.1484 180.763 70.701L179.143 71.0938C179.471 72.1626 180.569 73.0227 182.513 73.0227ZM182.528 68.4787C181.34 68.4787 180.714 67.554 180.714 66.147C180.714 64.7599 181.33 63.7408 182.528 63.7408C183.687 63.7408 184.323 64.7003 184.323 66.147C184.323 67.6037 183.677 68.4787 182.528 68.4787ZM191.323 70.1491C193.103 70.1491 194.326 69.2791 194.644 67.9517L192.964 67.7628C192.72 68.4091 192.123 68.7472 191.348 68.7472C190.184 68.7472 189.414 67.9815 189.399 66.674H194.719V66.1222C194.719 63.4425 193.108 62.2642 191.229 62.2642C189.041 62.2642 187.614 63.87 187.614 66.2266C187.614 68.6229 189.021 70.1491 191.323 70.1491ZM189.404 65.4609C189.459 64.4865 190.18 63.6662 191.253 63.6662C192.287 63.6662 192.983 64.4219 192.993 65.4609H189.404ZM196.241 70H198.041V65.3565C198.041 64.4169 198.667 63.7805 199.443 63.7805C200.203 63.7805 200.725 64.2926 200.725 65.0781V70H202.49V65.2372C202.49 64.3771 203.002 63.7805 203.873 63.7805C204.598 63.7805 205.175 64.2081 205.175 65.1527V70H206.98V64.8743C206.98 63.169 205.995 62.2642 204.593 62.2642C203.485 62.2642 202.64 62.8111 202.301 63.6612H202.222C201.929 62.7962 201.188 62.2642 200.159 62.2642C199.135 62.2642 198.369 62.7912 198.051 63.6612H197.961V62.3636H196.241V70ZM212.186 70.1491C213.966 70.1491 215.189 69.2791 215.507 67.9517L213.827 67.7628C213.583 68.4091 212.987 68.7472 212.211 68.7472C211.048 68.7472 210.277 67.9815 210.262 66.674H215.582V66.1222C215.582 63.4425 213.971 62.2642 212.092 62.2642C209.904 62.2642 208.477 63.87 208.477 66.2266C208.477 68.6229 209.884 70.1491 212.186 70.1491ZM210.267 65.4609C210.322 64.4865 211.043 63.6662 212.117 63.6662C213.151 63.6662 213.847 64.4219 213.857 65.4609H210.267ZM218.904 65.5256C218.904 64.4219 219.57 63.7855 220.52 63.7855C221.45 63.7855 222.006 64.397 222.006 65.4162V70H223.806V65.1378C223.811 63.3082 222.767 62.2642 221.191 62.2642C220.048 62.2642 219.262 62.8111 218.914 63.6612H218.825V62.3636H217.104V70H218.904V65.5256ZM229.449 62.3636H227.942V60.5341H226.143V62.3636H225.059V63.7557H226.143V68.0014C226.133 69.4382 227.177 70.1442 228.529 70.1044C229.041 70.0895 229.394 69.9901 229.588 69.9254L229.285 68.5185C229.185 68.5433 228.982 68.5881 228.758 68.5881C228.305 68.5881 227.942 68.429 227.942 67.7031V63.7557H229.449V62.3636Z" fill="#3B3A40"/>
<rect x="108" y="197" width="41" height="19" rx="5" fill="#C2EED8"/>
<rect x="161" y="197" width="69" height="19" rx="5" fill="#E8E7E8"/>
<rect x="96" y="206" width="12" height="1" fill="#E8E7E8"/>
<rect x="149" y="206" width="12" height="1" fill="#E8E7E8"/>
<rect x="48" y="93" width="174" height="8" rx="4" fill="#E8E7E8"/>
<rect x="48" y="117" width="226" height="8" rx="4" fill="#E8E7E8"/>
<rect x="48" y="141" width="206" height="8" rx="4" fill="#E8E7E8"/>
</g>
<g filter="url(#filter1_d)">
<rect x="32" y="268" width="266" height="212" rx="12" fill="white"/>
<rect x="48" y="437" width="48" height="19" rx="5" fill="#E8E7E8"/>
<circle cx="60" cy="304" r="12" fill="#D1D0D6"/>
<path d="M90.5376 302.617C90.4912 302.183 90.2957 301.845 89.951 301.603C89.6096 301.361 89.1655 301.24 88.6186 301.24C88.2341 301.24 87.9044 301.298 87.6293 301.414C87.3542 301.53 87.1437 301.687 86.9979 301.886C86.852 302.085 86.7775 302.312 86.7741 302.567C86.7741 302.78 86.8222 302.964 86.9183 303.119C87.0178 303.275 87.152 303.408 87.321 303.517C87.4901 303.623 87.6773 303.713 87.8828 303.786C88.0883 303.858 88.2955 303.92 88.5043 303.969L89.4588 304.208C89.8433 304.298 90.2128 304.419 90.5675 304.571C90.9254 304.723 91.2453 304.916 91.527 305.148C91.812 305.38 92.0374 305.66 92.2031 305.988C92.3688 306.316 92.4517 306.701 92.4517 307.141C92.4517 307.738 92.2992 308.263 91.9943 308.717C91.6894 309.168 91.2486 309.521 90.6719 309.776C90.0985 310.028 89.4041 310.154 88.5888 310.154C87.7966 310.154 87.1089 310.031 86.5256 309.786C85.9455 309.541 85.4915 309.183 85.1634 308.712C84.8385 308.242 84.6629 307.668 84.6364 306.992H86.451C86.4775 307.347 86.5869 307.642 86.7791 307.877C86.9714 308.112 87.2216 308.288 87.5298 308.404C87.8414 308.52 88.1894 308.578 88.5739 308.578C88.9749 308.578 89.3262 308.518 89.6278 308.399C89.9328 308.277 90.1714 308.107 90.3438 307.892C90.5161 307.673 90.6039 307.418 90.6072 307.126C90.6039 306.861 90.526 306.643 90.3736 306.47C90.2211 306.295 90.0073 306.149 89.7322 306.033C89.4605 305.913 89.1423 305.807 88.7777 305.714L87.6193 305.416C86.7808 305.201 86.1179 304.874 85.6307 304.437C85.1468 303.996 84.9048 303.411 84.9048 302.682C84.9048 302.082 85.0672 301.557 85.392 301.106C85.7202 300.655 86.166 300.305 86.7294 300.057C87.2929 299.805 87.9309 299.679 88.6435 299.679C89.366 299.679 89.9991 299.805 90.5426 300.057C91.0895 300.305 91.5187 300.652 91.8303 301.096C92.1418 301.537 92.3026 302.044 92.3125 302.617H90.5376ZM97.3475 310.149C96.6017 310.149 95.9554 309.985 95.4086 309.657C94.8617 309.329 94.4374 308.87 94.1358 308.28C93.8375 307.69 93.6884 307 93.6884 306.212C93.6884 305.423 93.8375 304.732 94.1358 304.138C94.4374 303.545 94.8617 303.085 95.4086 302.756C95.9554 302.428 96.6017 302.264 97.3475 302.264C98.0932 302.264 98.7395 302.428 99.2864 302.756C99.8333 303.085 100.256 303.545 100.554 304.138C100.856 304.732 101.007 305.423 101.007 306.212C101.007 307 100.856 307.69 100.554 308.28C100.256 308.87 99.8333 309.329 99.2864 309.657C98.7395 309.985 98.0932 310.149 97.3475 310.149ZM97.3574 308.707C97.7618 308.707 98.0998 308.596 98.3716 308.374C98.6434 308.149 98.8456 307.847 98.9782 307.469C99.1141 307.092 99.182 306.671 99.182 306.207C99.182 305.739 99.1141 305.317 98.9782 304.939C98.8456 304.558 98.6434 304.254 98.3716 304.029C98.0998 303.804 97.7618 303.691 97.3574 303.691C96.9431 303.691 96.5984 303.804 96.3233 304.029C96.0516 304.254 95.8477 304.558 95.7118 304.939C95.5792 305.317 95.513 305.739 95.513 306.207C95.513 306.671 95.5792 307.092 95.7118 307.469C95.8477 307.847 96.0516 308.149 96.3233 308.374C96.5984 308.596 96.9431 308.707 97.3574 308.707ZM106.402 302.364V303.756H101.888V302.364H106.402ZM103.016 310V301.643C103.016 301.129 103.122 300.701 103.335 300.36C103.55 300.019 103.838 299.763 104.2 299.594C104.561 299.425 104.962 299.341 105.403 299.341C105.714 299.341 105.991 299.366 106.233 299.415C106.475 299.465 106.654 299.51 106.77 299.55L106.412 300.942C106.336 300.919 106.24 300.895 106.124 300.872C106.008 300.846 105.878 300.832 105.736 300.832C105.401 300.832 105.164 300.914 105.025 301.076C104.889 301.235 104.821 301.464 104.821 301.762V310H103.016ZM109.387 310L107.23 302.364H109.064L110.407 307.733H110.476L111.848 302.364H113.663L115.035 307.703H115.11L116.432 302.364H118.272L116.109 310H114.235L112.803 304.839H112.699L111.267 310H109.387ZM121.726 310.154C121.242 310.154 120.806 310.068 120.418 309.896C120.034 309.72 119.729 309.461 119.503 309.12C119.281 308.779 119.17 308.358 119.17 307.857C119.17 307.426 119.25 307.07 119.409 306.788C119.568 306.507 119.785 306.281 120.06 306.112C120.335 305.943 120.645 305.816 120.99 305.729C121.338 305.64 121.698 305.575 122.069 305.536C122.516 305.489 122.879 305.448 123.157 305.411C123.436 305.371 123.638 305.312 123.764 305.232C123.893 305.149 123.958 305.022 123.958 304.849V304.82C123.958 304.445 123.847 304.155 123.625 303.95C123.403 303.744 123.083 303.641 122.665 303.641C122.224 303.641 121.875 303.737 121.616 303.93C121.361 304.122 121.189 304.349 121.099 304.611L119.419 304.372C119.551 303.908 119.77 303.52 120.075 303.209C120.38 302.894 120.753 302.659 121.194 302.503C121.635 302.344 122.122 302.264 122.655 302.264C123.023 302.264 123.39 302.307 123.754 302.393C124.119 302.48 124.452 302.622 124.753 302.821C125.055 303.017 125.297 303.283 125.479 303.621C125.665 303.96 125.758 304.382 125.758 304.889V310H124.028V308.951H123.968C123.858 309.163 123.704 309.362 123.506 309.548C123.31 309.73 123.063 309.877 122.765 309.99C122.47 310.099 122.123 310.154 121.726 310.154ZM122.193 308.832C122.554 308.832 122.867 308.76 123.133 308.618C123.398 308.472 123.602 308.28 123.744 308.041C123.89 307.803 123.963 307.542 123.963 307.261V306.361C123.907 306.407 123.81 306.45 123.675 306.49C123.542 306.53 123.393 306.565 123.227 306.594C123.061 306.624 122.897 306.651 122.735 306.674C122.573 306.697 122.432 306.717 122.312 306.734C122.044 306.77 121.804 306.83 121.591 306.913C121.379 306.996 121.212 307.112 121.089 307.261C120.967 307.406 120.905 307.595 120.905 307.827C120.905 308.159 121.026 308.409 121.268 308.578C121.51 308.747 121.818 308.832 122.193 308.832ZM127.567 310V302.364H129.312V303.636H129.392C129.531 303.196 129.77 302.856 130.108 302.617C130.449 302.375 130.839 302.254 131.276 302.254C131.376 302.254 131.487 302.259 131.609 302.269C131.735 302.276 131.84 302.287 131.922 302.304V303.96C131.846 303.933 131.725 303.91 131.559 303.89C131.397 303.867 131.24 303.855 131.087 303.855C130.759 303.855 130.464 303.926 130.202 304.069C129.944 304.208 129.74 304.402 129.591 304.651C129.442 304.899 129.367 305.186 129.367 305.511V310H127.567ZM136.184 310.149C135.419 310.149 134.757 309.99 134.201 309.672C133.647 309.35 133.221 308.896 132.923 308.31C132.625 307.72 132.475 307.025 132.475 306.227C132.475 305.441 132.625 304.752 132.923 304.158C133.225 303.562 133.645 303.098 134.186 302.766C134.726 302.432 135.361 302.264 136.09 302.264C136.56 302.264 137.005 302.34 137.422 302.493C137.843 302.642 138.214 302.874 138.536 303.189C138.861 303.504 139.116 303.905 139.301 304.392C139.487 304.876 139.58 305.453 139.58 306.122V306.674H133.321V305.461H137.855C137.851 305.116 137.777 304.81 137.631 304.541C137.485 304.269 137.281 304.056 137.02 303.9C136.761 303.744 136.459 303.666 136.115 303.666C135.747 303.666 135.424 303.756 135.145 303.935C134.867 304.11 134.65 304.342 134.494 304.631C134.342 304.916 134.264 305.229 134.26 305.57V306.629C134.26 307.073 134.342 307.455 134.504 307.773C134.666 308.088 134.893 308.33 135.185 308.499C135.477 308.664 135.818 308.747 136.209 308.747C136.471 308.747 136.708 308.711 136.92 308.638C137.132 308.562 137.316 308.451 137.472 308.305C137.628 308.159 137.745 307.978 137.825 307.763L139.505 307.952C139.399 308.396 139.197 308.784 138.899 309.115C138.604 309.443 138.226 309.698 137.765 309.881C137.305 310.06 136.778 310.149 136.184 310.149ZM148.105 310H144.655V299.818H148.175C149.185 299.818 150.054 300.022 150.78 300.43C151.509 300.834 152.069 301.416 152.46 302.175C152.851 302.934 153.047 303.842 153.047 304.899C153.047 305.96 152.849 306.871 152.455 307.634C152.064 308.396 151.499 308.981 150.76 309.388C150.024 309.796 149.139 310 148.105 310ZM146.499 308.404H148.015C148.725 308.404 149.316 308.275 149.79 308.016C150.264 307.754 150.621 307.365 150.859 306.848C151.098 306.328 151.217 305.678 151.217 304.899C151.217 304.12 151.098 303.474 150.859 302.96C150.621 302.443 150.268 302.057 149.8 301.802C149.336 301.543 148.76 301.414 148.07 301.414H146.499V308.404ZM158.1 310.149C157.335 310.149 156.673 309.99 156.117 309.672C155.563 309.35 155.137 308.896 154.839 308.31C154.541 307.72 154.392 307.025 154.392 306.227C154.392 305.441 154.541 304.752 154.839 304.158C155.141 303.562 155.561 303.098 156.102 302.766C156.642 302.432 157.277 302.264 158.006 302.264C158.477 302.264 158.921 302.34 159.338 302.493C159.759 302.642 160.13 302.874 160.452 303.189C160.777 303.504 161.032 303.905 161.218 304.392C161.403 304.876 161.496 305.453 161.496 306.122V306.674H155.237V305.461H159.771C159.767 305.116 159.693 304.81 159.547 304.541C159.401 304.269 159.197 304.056 158.936 303.9C158.677 303.744 158.375 303.666 158.031 303.666C157.663 303.666 157.34 303.756 157.061 303.935C156.783 304.11 156.566 304.342 156.41 304.631C156.258 304.916 156.18 305.229 156.176 305.57V306.629C156.176 307.073 156.258 307.455 156.42 307.773C156.582 308.088 156.809 308.33 157.101 308.499C157.393 308.664 157.734 308.747 158.125 308.747C158.387 308.747 158.624 308.711 158.836 308.638C159.048 308.562 159.232 308.451 159.388 308.305C159.544 308.159 159.661 307.978 159.741 307.763L161.421 307.952C161.315 308.396 161.113 308.784 160.815 309.115C160.52 309.443 160.142 309.698 159.681 309.881C159.221 310.06 158.694 310.149 158.1 310.149ZM169.621 302.364L166.901 310H164.913L162.193 302.364H164.112L165.867 308.036H165.947L167.707 302.364H169.621ZM173.987 310.149C173.221 310.149 172.56 309.99 172.003 309.672C171.45 309.35 171.024 308.896 170.726 308.31C170.427 307.72 170.278 307.025 170.278 306.227C170.278 305.441 170.427 304.752 170.726 304.158C171.027 303.562 171.448 303.098 171.988 302.766C172.529 302.432 173.163 302.264 173.893 302.264C174.363 302.264 174.807 302.34 175.225 302.493C175.646 302.642 176.017 302.874 176.339 303.189C176.663 303.504 176.919 303.905 177.104 304.392C177.29 304.876 177.383 305.453 177.383 306.122V306.674H171.123V305.461H175.657C175.654 305.116 175.58 304.81 175.434 304.541C175.288 304.269 175.084 304.056 174.822 303.9C174.564 303.744 174.262 303.666 173.917 303.666C173.55 303.666 173.226 303.756 172.948 303.935C172.67 304.11 172.452 304.342 172.297 304.631C172.144 304.916 172.066 305.229 172.063 305.57V306.629C172.063 307.073 172.144 307.455 172.307 307.773C172.469 308.088 172.696 308.33 172.988 308.499C173.279 308.664 173.621 308.747 174.012 308.747C174.274 308.747 174.511 308.711 174.723 308.638C174.935 308.562 175.119 308.451 175.275 308.305C175.43 308.159 175.548 307.978 175.628 307.763L177.308 307.952C177.202 308.396 177 308.784 176.702 309.115C176.407 309.443 176.029 309.698 175.568 309.881C175.107 310.06 174.58 310.149 173.987 310.149ZM180.705 299.818V310H178.905V299.818H180.705ZM185.887 310.149C185.141 310.149 184.494 309.985 183.948 309.657C183.401 309.329 182.977 308.87 182.675 308.28C182.377 307.69 182.227 307 182.227 306.212C182.227 305.423 182.377 304.732 182.675 304.138C182.977 303.545 183.401 303.085 183.948 302.756C184.494 302.428 185.141 302.264 185.887 302.264C186.632 302.264 187.279 302.428 187.825 302.756C188.372 303.085 188.795 303.545 189.093 304.138C189.395 304.732 189.546 305.423 189.546 306.212C189.546 307 189.395 307.69 189.093 308.28C188.795 308.87 188.372 309.329 187.825 309.657C187.279 309.985 186.632 310.149 185.887 310.149ZM185.896 308.707C186.301 308.707 186.639 308.596 186.911 308.374C187.182 308.149 187.385 307.847 187.517 307.469C187.653 307.092 187.721 306.671 187.721 306.207C187.721 305.739 187.653 305.317 187.517 304.939C187.385 304.558 187.182 304.254 186.911 304.029C186.639 303.804 186.301 303.691 185.896 303.691C185.482 303.691 185.137 303.804 184.862 304.029C184.591 304.254 184.387 304.558 184.251 304.939C184.118 305.317 184.052 305.739 184.052 306.207C184.052 306.671 184.118 307.092 184.251 307.469C184.387 307.847 184.591 308.149 184.862 308.374C185.137 308.596 185.482 308.707 185.896 308.707ZM191.073 312.864V302.364H192.843V303.626H192.947C193.04 303.441 193.171 303.244 193.34 303.035C193.509 302.823 193.738 302.642 194.026 302.493C194.315 302.34 194.683 302.264 195.13 302.264C195.72 302.264 196.252 302.415 196.726 302.717C197.203 303.015 197.581 303.457 197.859 304.044C198.141 304.627 198.282 305.343 198.282 306.192C198.282 307.03 198.144 307.743 197.869 308.33C197.594 308.916 197.22 309.364 196.746 309.672C196.272 309.98 195.735 310.134 195.135 310.134C194.697 310.134 194.335 310.061 194.046 309.915C193.758 309.77 193.526 309.594 193.35 309.388C193.178 309.18 193.044 308.982 192.947 308.797H192.873V312.864H191.073ZM192.838 306.182C192.838 306.676 192.908 307.108 193.047 307.479C193.189 307.851 193.393 308.141 193.658 308.349C193.927 308.555 194.252 308.658 194.633 308.658C195.031 308.658 195.364 308.552 195.632 308.339C195.901 308.124 196.103 307.831 196.239 307.46C196.378 307.085 196.447 306.659 196.447 306.182C196.447 305.708 196.379 305.287 196.244 304.919C196.108 304.551 195.906 304.263 195.637 304.054C195.369 303.845 195.034 303.741 194.633 303.741C194.248 303.741 193.922 303.842 193.653 304.044C193.385 304.246 193.181 304.53 193.042 304.894C192.906 305.259 192.838 305.688 192.838 306.182ZM199.823 310V302.364H201.543V303.661H201.633C201.792 303.224 202.055 302.882 202.423 302.637C202.791 302.388 203.23 302.264 203.741 302.264C204.258 302.264 204.694 302.39 205.048 302.642C205.406 302.891 205.658 303.23 205.804 303.661H205.884C206.053 303.237 206.338 302.899 206.739 302.647C207.143 302.392 207.622 302.264 208.175 302.264C208.878 302.264 209.451 302.486 209.896 302.93C210.34 303.375 210.562 304.022 210.562 304.874V310H208.757V305.153C208.757 304.679 208.631 304.332 208.379 304.114C208.127 303.892 207.819 303.781 207.455 303.781C207.02 303.781 206.681 303.916 206.435 304.188C206.193 304.457 206.072 304.806 206.072 305.237V310H204.308V305.078C204.308 304.684 204.188 304.369 203.95 304.134C203.714 303.898 203.406 303.781 203.025 303.781C202.766 303.781 202.531 303.847 202.319 303.979C202.107 304.109 201.938 304.293 201.812 304.531C201.686 304.767 201.623 305.042 201.623 305.357V310H199.823ZM215.768 310.149C215.003 310.149 214.341 309.99 213.785 309.672C213.231 309.35 212.805 308.896 212.507 308.31C212.209 307.72 212.059 307.025 212.059 306.227C212.059 305.441 212.209 304.752 212.507 304.158C212.809 303.562 213.229 303.098 213.77 302.766C214.31 302.432 214.945 302.264 215.674 302.264C216.144 302.264 216.589 302.34 217.006 302.493C217.427 302.642 217.798 302.874 218.12 303.189C218.445 303.504 218.7 303.905 218.885 304.392C219.071 304.876 219.164 305.453 219.164 306.122V306.674H212.905V305.461H217.439C217.435 305.116 217.361 304.81 217.215 304.541C217.069 304.269 216.865 304.056 216.604 303.9C216.345 303.744 216.043 303.666 215.699 303.666C215.331 303.666 215.008 303.756 214.729 303.935C214.451 304.11 214.234 304.342 214.078 304.631C213.925 304.916 213.848 305.229 213.844 305.57V306.629C213.844 307.073 213.925 307.455 214.088 307.773C214.25 308.088 214.477 308.33 214.769 308.499C215.061 308.664 215.402 308.747 215.793 308.747C216.055 308.747 216.292 308.711 216.504 308.638C216.716 308.562 216.9 308.451 217.056 308.305C217.212 308.159 217.329 307.978 217.409 307.763L219.089 307.952C218.983 308.396 218.781 308.784 218.483 309.115C218.188 309.443 217.81 309.698 217.349 309.881C216.889 310.06 216.362 310.149 215.768 310.149ZM222.486 305.526V310H220.686V302.364H222.407V303.661H222.496C222.672 303.234 222.952 302.894 223.336 302.642C223.724 302.39 224.203 302.264 224.773 302.264C225.3 302.264 225.759 302.377 226.15 302.602C226.545 302.828 226.85 303.154 227.065 303.582C227.284 304.009 227.391 304.528 227.388 305.138V310H225.588V305.416C225.588 304.906 225.456 304.506 225.191 304.218C224.929 303.93 224.566 303.786 224.102 303.786C223.787 303.786 223.507 303.855 223.262 303.994C223.02 304.13 222.829 304.327 222.69 304.586C222.554 304.844 222.486 305.158 222.486 305.526ZM233.031 302.364V303.756H228.641V302.364H233.031ZM229.725 300.534H231.525V307.703C231.525 307.945 231.561 308.131 231.634 308.26C231.71 308.386 231.81 308.472 231.932 308.518C232.055 308.565 232.191 308.588 232.34 308.588C232.453 308.588 232.555 308.58 232.648 308.563C232.744 308.547 232.817 308.532 232.867 308.518L233.17 309.925C233.074 309.959 232.936 309.995 232.757 310.035C232.582 310.075 232.366 310.098 232.111 310.104C231.66 310.118 231.254 310.05 230.893 309.901C230.532 309.748 230.245 309.513 230.033 309.195C229.824 308.876 229.721 308.479 229.725 308.001V300.534Z" fill="#3B3A40"/>
<rect x="108" y="437" width="62" height="19" rx="5" fill="#C0EEF5"/>
<rect x="182" y="437" width="69" height="19" rx="5" fill="#C2EED8"/>
<rect x="96" y="446" width="12" height="1" fill="#E8E7E8"/>
<rect x="170" y="446" width="12" height="1" fill="#E8E7E8"/>
<rect x="48" y="333" width="216" height="8" rx="4" fill="#E8E7E8"/>
<rect x="48" y="357" width="226" height="8" rx="4" fill="#E8E7E8"/>
<rect x="48" y="381" width="76" height="8" rx="4" fill="#E8E7E8"/>
</g>
<g filter="url(#filter2_d)">
<rect x="328" y="76" width="266" height="212" rx="12" fill="white"/>
<rect x="397" y="245" width="60" height="19" rx="5" fill="#C0EEF5"/>
<rect x="385" y="254" width="12" height="1" fill="#E8E7E8"/>
<rect x="457" y="254" width="12" height="1" fill="#E8E7E8"/>
<circle cx="356" cy="112" r="12" fill="#D1D0D6"/>
<path d="M389.719 111.254C389.406 108.991 387.666 107.679 385.409 107.679C382.749 107.679 380.746 109.618 380.746 112.909C380.746 116.195 382.724 118.139 385.409 118.139C387.83 118.139 389.436 116.573 389.719 114.629L387.86 114.619C387.626 115.812 386.652 116.484 385.434 116.484C383.783 116.484 382.6 115.246 382.6 112.909C382.6 110.612 383.773 109.335 385.439 109.335C386.677 109.335 387.646 110.036 387.86 111.254H389.719ZM394.66 118.149C396.897 118.149 398.319 116.573 398.319 114.212C398.319 111.845 396.897 110.264 394.66 110.264C392.423 110.264 391.001 111.845 391.001 114.212C391.001 116.573 392.423 118.149 394.66 118.149ZM394.67 116.707C393.432 116.707 392.825 115.604 392.825 114.207C392.825 112.81 393.432 111.691 394.67 111.691C395.888 111.691 396.494 112.81 396.494 114.207C396.494 115.604 395.888 116.707 394.67 116.707ZM401.646 113.526C401.646 112.422 402.312 111.786 403.262 111.786C404.192 111.786 404.749 112.397 404.749 113.416V118H406.548V113.138C406.553 111.308 405.509 110.264 403.933 110.264C402.79 110.264 402.004 110.811 401.656 111.661H401.567V110.364H399.847V118H401.646V113.526ZM412.191 110.364H410.685V108.534H408.885V110.364H407.801V111.756H408.885V116.001C408.875 117.438 409.919 118.144 411.271 118.104C411.783 118.089 412.136 117.99 412.33 117.925L412.027 116.518C411.928 116.543 411.724 116.588 411.5 116.588C411.048 116.588 410.685 116.429 410.685 115.703V111.756H412.191V110.364ZM416.995 118.149C418.775 118.149 419.998 117.279 420.316 115.952L418.635 115.763C418.392 116.409 417.795 116.747 417.02 116.747C415.856 116.747 415.086 115.982 415.071 114.674H420.39V114.122C420.39 111.442 418.78 110.264 416.9 110.264C414.713 110.264 413.286 111.87 413.286 114.227C413.286 116.623 414.693 118.149 416.995 118.149ZM415.076 113.461C415.131 112.487 415.851 111.666 416.925 111.666C417.959 111.666 418.655 112.422 418.665 113.461H415.076ZM423.713 113.526C423.713 112.422 424.379 111.786 425.328 111.786C426.258 111.786 426.815 112.397 426.815 113.416V118H428.615V113.138C428.62 111.308 427.576 110.264 426 110.264C424.856 110.264 424.071 110.811 423.723 111.661H423.633V110.364H421.913V118H423.713V113.526ZM434.257 110.364H432.751V108.534H430.951V110.364H429.868V111.756H430.951V116.001C430.941 117.438 431.985 118.144 433.338 118.104C433.85 118.089 434.203 117.99 434.397 117.925L434.093 116.518C433.994 116.543 433.79 116.588 433.566 116.588C433.114 116.588 432.751 116.429 432.751 115.703V111.756H434.257V110.364ZM439.315 107.818V118H441.085V110.99H441.179L443.993 117.97H445.316L448.129 111.005H448.224V118H449.994V107.818H447.737L444.714 115.196H444.595L441.572 107.818H439.315ZM454.12 118.154C455.318 118.154 456.034 117.592 456.362 116.951H456.422V118H458.152V112.889C458.152 110.871 456.507 110.264 455.05 110.264C453.444 110.264 452.211 110.98 451.813 112.372L453.494 112.611C453.673 112.089 454.18 111.641 455.06 111.641C455.895 111.641 456.352 112.069 456.352 112.82V112.849C456.352 113.366 455.811 113.391 454.463 113.536C452.982 113.695 451.565 114.137 451.565 115.857C451.565 117.359 452.664 118.154 454.12 118.154ZM454.588 116.832C453.837 116.832 453.3 116.489 453.3 115.827C453.3 115.136 453.901 114.848 454.707 114.734C455.179 114.669 456.124 114.55 456.357 114.361V115.261C456.357 116.111 455.671 116.832 454.588 116.832ZM459.962 118H461.762V113.511C461.762 112.541 462.492 111.855 463.482 111.855C463.785 111.855 464.163 111.91 464.317 111.96V110.304C464.153 110.274 463.869 110.254 463.671 110.254C462.796 110.254 462.065 110.751 461.786 111.636H461.707V110.364H459.962V118ZM465.513 118H467.312V115.435L467.969 114.734L470.305 118H472.458L469.326 113.66L472.284 110.364H470.181L467.437 113.431H467.312V107.818H465.513V118ZM476.55 118.149C478.329 118.149 479.552 117.279 479.871 115.952L478.19 115.763C477.947 116.409 477.35 116.747 476.574 116.747C475.411 116.747 474.64 115.982 474.626 114.674H479.945V114.122C479.945 111.442 478.334 110.264 476.455 110.264C474.268 110.264 472.841 111.87 472.841 114.227C472.841 116.623 474.248 118.149 476.55 118.149ZM474.631 113.461C474.685 112.487 475.406 111.666 476.48 111.666C477.514 111.666 478.21 112.422 478.22 113.461H474.631ZM485.281 110.364H483.775V108.534H481.975V110.364H480.891V111.756H481.975V116.001C481.965 117.438 483.009 118.144 484.361 118.104C484.873 118.089 485.226 117.99 485.42 117.925L485.117 116.518C485.017 116.543 484.814 116.588 484.59 116.588C484.137 116.588 483.775 116.429 483.775 115.703V111.756H485.281V110.364ZM486.786 118H488.586V110.364H486.786V118ZM487.691 109.28C488.263 109.28 488.73 108.842 488.73 108.305C488.73 107.763 488.263 107.326 487.691 107.326C487.114 107.326 486.647 107.763 486.647 108.305C486.647 108.842 487.114 109.28 487.691 109.28ZM492.236 113.526C492.236 112.422 492.902 111.786 493.852 111.786C494.782 111.786 495.338 112.397 495.338 113.416V118H497.138V113.138C497.143 111.308 496.099 110.264 494.523 110.264C493.38 110.264 492.594 110.811 492.246 111.661H492.157V110.364H490.436V118H492.236V113.526ZM502.289 121.023C504.352 121.023 505.873 120.078 505.873 118.124V110.364H504.098V111.626H503.999C503.725 111.075 503.154 110.264 501.806 110.264C500.042 110.264 498.654 111.646 498.654 114.157C498.654 116.648 500.042 117.891 501.801 117.891C503.109 117.891 503.721 117.19 503.999 116.628H504.088V118.075C504.088 119.198 503.343 119.661 502.319 119.661C501.235 119.661 500.757 119.148 500.539 118.701L498.918 119.094C499.246 120.163 500.345 121.023 502.289 121.023ZM502.304 116.479C501.115 116.479 500.489 115.554 500.489 114.147C500.489 112.76 501.105 111.741 502.304 111.741C503.462 111.741 504.098 112.7 504.098 114.147C504.098 115.604 503.452 116.479 502.304 116.479Z" fill="#3B3A40"/>
<rect x="344" y="245" width="41" height="19" rx="5" fill="#E8E7E8"/>
<rect x="469" y="245" width="33" height="19" rx="5" fill="#C2EED8"/>
<rect x="344" y="141" width="226" height="8" rx="4" fill="#E8E7E8"/>
<rect x="344" y="165" width="186" height="8" rx="4" fill="#E8E7E8"/>
<rect x="344" y="189" width="206" height="8" rx="4" fill="#E8E7E8"/>
<rect x="344" y="213" width="56" height="8" rx="4" fill="#E8E7E8"/>
</g>
<g filter="url(#filter3_d)">
<rect x="328" y="316" width="266" height="212" rx="12" fill="white"/>
<rect x="397" y="485" width="91" height="19" rx="5" fill="#C2EED8"/>
<rect x="385" y="494" width="12" height="1" fill="#E8E7E8"/>
<circle cx="356" cy="352" r="12" fill="#D1D0D6"/>
<path d="M381.004 358H382.849V353.675H387.567V358H389.416V347.818H387.567V352.129H382.849V347.818H381.004V358ZM391.343 358H393.142V350.364H391.343V358ZM392.248 349.28C392.819 349.28 393.287 348.842 393.287 348.305C393.287 347.763 392.819 347.326 392.248 347.326C391.671 347.326 391.203 347.763 391.203 348.305C391.203 348.842 391.671 349.28 392.248 349.28ZM394.993 358H396.793V353.511C396.793 352.541 397.524 351.855 398.513 351.855C398.816 351.855 399.194 351.91 399.348 351.96V350.304C399.184 350.274 398.901 350.254 398.702 350.254C397.827 350.254 397.096 350.751 396.818 351.636H396.738V350.364H394.993V358ZM400.544 358H402.344V350.364H400.544V358ZM401.449 349.28C402.02 349.28 402.488 348.842 402.488 348.305C402.488 347.763 402.02 347.326 401.449 347.326C400.872 347.326 400.405 347.763 400.405 348.305C400.405 348.842 400.872 349.28 401.449 349.28ZM405.994 353.526C405.994 352.422 406.66 351.786 407.61 351.786C408.539 351.786 409.096 352.397 409.096 353.416V358H410.896V353.138C410.901 351.308 409.857 350.264 408.281 350.264C407.137 350.264 406.352 350.811 406.004 351.661H405.914V350.364H404.194V358H405.994V353.526ZM416.047 361.023C418.11 361.023 419.631 360.078 419.631 358.124V350.364H417.856V351.626H417.757C417.483 351.075 416.912 350.264 415.564 350.264C413.799 350.264 412.412 351.646 412.412 354.157C412.412 356.648 413.799 357.891 415.559 357.891C416.867 357.891 417.478 357.19 417.757 356.628H417.846V358.075C417.846 359.198 417.1 359.661 416.076 359.661C414.993 359.661 414.515 359.148 414.297 358.701L412.676 359.094C413.004 360.163 414.103 361.023 416.047 361.023ZM416.061 356.479C414.873 356.479 414.247 355.554 414.247 354.147C414.247 352.76 414.863 351.741 416.061 351.741C417.22 351.741 417.856 352.7 417.856 354.147C417.856 355.604 417.21 356.479 416.061 356.479Z" fill="#3B3A40"/>
<rect x="344" y="485" width="41" height="19" rx="5" fill="#E8E7E8"/>
<rect x="344" y="381" width="226" height="8" rx="4" fill="#E8E7E8"/>
<rect x="344" y="405" width="226" height="8" rx="4" fill="#E8E7E8"/>
<rect x="344" y="429" width="196" height="8" rx="4" fill="#E8E7E8"/>
<rect x="344" y="453" width="206" height="8" rx="4" fill="#E8E7E8"/>
</g>
<defs>
<filter id="filter0_d" x="28" y="26" width="274" height="220" filterUnits="userSpaceOnUse" color-interpolation-filters="sRGB">
<feFlood flood-opacity="0" result="BackgroundImageFix"/>
<feColorMatrix in="SourceAlpha" type="matrix" values="0 0 0 0 0 0 0 0 0 0 0 0 0 0 0 0 0 0 127 0"/>
<feOffset dy="2"/>
<feGaussianBlur stdDeviation="2"/>
<feColorMatrix type="matrix" values="0 0 0 0 0 0 0 0 0 0 0 0 0 0 0 0 0 0 0.08 0"/>
<feBlend mode="normal" in2="BackgroundImageFix" result="effect1_dropShadow"/>
<feBlend mode="normal" in="SourceGraphic" in2="effect1_dropShadow" result="shape"/>
</filter>
<filter id="filter1_d" x="28" y="266" width="274" height="220" filterUnits="userSpaceOnUse" color-interpolation-filters="sRGB">
<feFlood flood-opacity="0" result="BackgroundImageFix"/>
<feColorMatrix in="SourceAlpha" type="matrix" values="0 0 0 0 0 0 0 0 0 0 0 0 0 0 0 0 0 0 127 0"/>
<feOffset dy="2"/>
<feGaussianBlur stdDeviation="2"/>
<feColorMatrix type="matrix" values="0 0 0 0 0 0 0 0 0 0 0 0 0 0 0 0 0 0 0.08 0"/>
<feBlend mode="normal" in2="BackgroundImageFix" result="effect1_dropShadow"/>
<feBlend mode="normal" in="SourceGraphic" in2="effect1_dropShadow" result="shape"/>
</filter>
<filter id="filter2_d" x="324" y="74" width="274" height="220" filterUnits="userSpaceOnUse" color-interpolation-filters="sRGB">
<feFlood flood-opacity="0" result="BackgroundImageFix"/>
<feColorMatrix in="SourceAlpha" type="matrix" values="0 0 0 0 0 0 0 0 0 0 0 0 0 0 0 0 0 0 127 0"/>
<feOffset dy="2"/>
<feGaussianBlur stdDeviation="2"/>
<feColorMatrix type="matrix" values="0 0 0 0 0 0 0 0 0 0 0 0 0 0 0 0 0 0 0.08 0"/>
<feBlend mode="normal" in2="BackgroundImageFix" result="effect1_dropShadow"/>
<feBlend mode="normal" in="SourceGraphic" in2="effect1_dropShadow" result="shape"/>
</filter>
<filter id="filter3_d" x="324" y="314" width="274" height="220" filterUnits="userSpaceOnUse" color-interpolation-filters="sRGB">
<feFlood flood-opacity="0" result="BackgroundImageFix"/>
<feColorMatrix in="SourceAlpha" type="matrix" values="0 0 0 0 0 0 0 0 0 0 0 0 0 0 0 0 0 0 127 0"/>
<feOffset dy="2"/>
<feGaussianBlur stdDeviation="2"/>
<feColorMatrix type="matrix" values="0 0 0 0 0 0 0 0 0 0 0 0 0 0 0 0 0 0 0.08 0"/>
<feBlend mode="normal" in2="BackgroundImageFix" result="effect1_dropShadow"/>
<feBlend mode="normal" in="SourceGraphic" in2="effect1_dropShadow" result="shape"/>
</filter>
</defs>
</svg>
