<svg width="380" height="160" viewBox="0 0 380 160" fill="none" xmlns="http://www.w3.org/2000/svg">
<rect y="88" width="380" height="19" fill="#FFDEA7"/>
<path d="M31.7117 70.2C31.0451 72.8667 30.4117 75.4 29.8117 77.8C29.2784 80.2 29.0117 82.3667 29.0117 84.3C29.0117 85.6333 29.1784 86.8333 29.5117 87.9C29.8451 88.9667 30.4117 89.9 31.2117 90.7C32.0784 91.4333 33.1784 92 34.5117 92.4C35.9117 92.8 37.6451 93 39.7117 93L38.6117 97H1.61172L2.71172 93C5.04505 93 7.07839 92.8 8.81172 92.4C10.6117 92 12.1451 91.2667 13.4117 90.2C14.7451 89.1333 15.8784 87.7 16.8117 85.9C17.7451 84.1 18.5451 81.8333 19.2117 79.1L29.4117 38C29.4784 37.6667 29.5117 37.3667 29.5117 37.1C29.5784 36.8333 29.6117 36.6 29.6117 36.4C29.6117 35.5333 29.1117 35.1 28.1117 35.1C26.9784 35.1 25.2117 35.3667 22.8117 35.9C20.4784 36.4333 17.3784 36.7 13.5117 36.7L14.1117 32.5C16.9784 32.5 19.6451 32.1333 22.1117 31.4C24.5784 30.6667 26.9117 29.6667 29.1117 28.4C31.3117 27.1333 33.3784 25.7 35.3117 24.1C37.2451 22.5 39.1117 20.8 40.9117 19H44.6117L31.7117 70.2ZM74.3008 98C71.4341 98 68.8341 97.3667 66.5008 96.1C64.1674 94.7667 62.1674 92.9333 60.5008 90.6C58.8341 88.2667 57.5341 85.4667 56.6008 82.2C55.6674 78.8667 55.2008 75.2 55.2008 71.2C55.2008 64.8 56.2674 58.5 58.4008 52.3C60.5341 46.0333 63.3341 40.4333 66.8008 35.5C70.3341 30.5667 74.2674 26.6 78.6008 23.6C83.0008 20.5333 87.4674 19 92.0008 19C94.8674 19 97.4675 19.6333 99.8008 20.9C102.201 22.1 104.234 23.8333 105.901 26.1C107.567 28.3 108.867 30.9667 109.801 34.1C110.734 37.2333 111.201 40.7 111.201 44.5C111.201 48.7 110.701 52.9667 109.701 57.3C108.701 61.5667 107.301 65.7 105.501 69.7C103.767 73.6333 101.701 77.3333 99.3008 80.8C96.9008 84.2 94.3341 87.2 91.6008 89.8C88.8675 92.3333 86.0341 94.3333 83.1008 95.8C80.1674 97.2667 77.2341 98 74.3008 98ZM91.0008 24.2C89.0675 24.2 87.1008 24.9667 85.1008 26.5C83.1675 28.0333 81.2674 30.1333 79.4008 32.8C77.6008 35.4 75.9008 38.5 74.3008 42.1C72.7008 45.6333 71.3008 49.4333 70.1008 53.5C68.9674 57.5667 68.0341 61.8 67.3008 66.2C66.6341 70.5333 66.3008 74.8333 66.3008 79.1C66.3008 83.4333 67.1008 86.8 68.7008 89.2C70.3008 91.5333 72.6008 92.7 75.6008 92.7C77.5341 92.7 79.4674 91.9333 81.4008 90.4C83.3341 88.8667 85.2008 86.7667 87.0008 84.1C88.8008 81.4333 90.5008 78.3333 92.1008 74.8C93.7008 71.2 95.0674 67.3333 96.2008 63.2C97.4008 59.0667 98.3341 54.8 99.0008 50.4C99.6675 45.9333 100.001 41.5333 100.001 37.2C100.001 33 99.2341 29.8 97.7008 27.6C96.1674 25.3333 93.9341 24.2 91.0008 24.2ZM155.612 67.8C154.545 62.3333 153.445 58.5667 152.312 56.5C151.245 54.3667 150.112 53.3 148.912 53.3C147.645 53.3 146.478 54.2667 145.412 56.2C144.412 58.0667 143.378 61.0667 142.312 65.2L138.612 64.2C139.278 61.1333 140.145 58.3 141.212 55.7C142.345 53.1 143.545 50.8667 144.812 49C146.145 47.0667 147.545 45.6 149.012 44.6C150.478 43.5333 151.945 43 153.412 43C154.678 43 155.745 43.4667 156.612 44.4C157.545 45.3333 158.478 47.0667 159.412 49.6C160.212 51.7333 161.078 54.5667 162.012 58.1C163.012 61.5667 163.978 65.5667 164.912 70.1L168.312 86.2H168.712C169.978 84.6 171.245 82.8 172.512 80.8C173.845 78.7333 175.045 76.6 176.112 74.4C177.178 72.1333 178.045 69.8667 178.712 67.6C179.378 65.2667 179.712 63.1 179.712 61.1C179.712 60.4333 179.678 59.6 179.612 58.6C179.545 57.5333 179.445 56.4667 179.312 55.4C179.245 54.3333 179.178 53.3333 179.112 52.4C179.045 51.4 179.012 50.6 179.012 50C179.012 47.6 179.612 45.8333 180.812 44.7C182.012 43.5667 183.278 43 184.612 43C186.345 43 187.612 43.7333 188.412 45.2C189.212 46.6667 189.612 48.3667 189.612 50.3C189.612 53.0333 188.878 56.5333 187.412 60.8C185.945 65.0667 184.012 69.6667 181.612 74.6C179.212 79.4667 176.445 84.4667 173.312 89.6C170.178 94.6667 166.945 99.3333 163.612 103.6C158.545 110.2 153.845 115.067 149.512 118.2C145.245 121.4 141.245 123 137.512 123C134.712 123 132.512 122.233 130.912 120.7C129.245 119.167 128.412 117.3 128.412 115.1C128.412 113.433 128.878 112.067 129.812 111C130.745 110 131.978 109.5 133.512 109.5C134.845 109.5 135.845 109.867 136.512 110.6C137.112 111.4 137.612 112.267 138.012 113.2C138.412 114.2 138.845 115.067 139.312 115.8C139.712 116.6 140.378 117 141.312 117C142.578 117 144.178 116.3 146.112 114.9C148.045 113.5 149.978 111.733 151.912 109.6C153.845 107.533 155.645 105.267 157.312 102.8C159.045 100.333 160.278 98.0333 161.012 95.9L155.612 67.8ZM228.077 83.7C222.277 93.2333 215.143 98 206.677 98C202.077 98 198.543 96.6 196.077 93.8C193.61 90.9333 192.377 86.9 192.377 81.7C192.377 77.1 193.31 72.5 195.177 67.9C197.11 63.3 199.61 59.1667 202.677 55.5C205.743 51.7667 209.177 48.7667 212.977 46.5C216.777 44.1667 220.577 43 224.377 43C227.577 43 230.177 43.8333 232.177 45.5C234.243 47.1 235.277 49.1667 235.277 51.7C235.277 54.0333 234.41 56.4333 232.677 58.9C230.943 61.3667 228.577 63.7 225.577 65.9C222.643 68.1 219.177 70.1 215.177 71.9C211.243 73.7 207.043 75.1 202.577 76.1C202.443 77.0333 202.343 77.9667 202.277 78.9C202.21 79.7667 202.177 80.6667 202.177 81.6C202.177 88.8667 204.743 92.5 209.877 92.5C212.343 92.5 214.877 91.5333 217.477 89.6C220.143 87.6667 222.61 85 224.877 81.6L228.077 83.7ZM222.377 47.7C220.643 47.7 218.843 48.3667 216.977 49.7C215.11 51.0333 213.31 52.8333 211.577 55.1C209.91 57.3 208.377 59.8333 206.977 62.7C205.577 65.5667 204.443 68.5333 203.577 71.6C206.777 70.7333 209.743 69.6 212.477 68.2C215.21 66.8 217.543 65.2333 219.477 63.5C221.477 61.7 223.043 59.8333 224.177 57.9C225.31 55.9 225.877 53.9 225.877 51.9C225.877 49.1 224.71 47.7 222.377 47.7ZM269.782 48.2C267.249 48.2 264.615 49.3667 261.882 51.7C259.215 54.0333 256.782 56.9667 254.582 60.5C252.382 63.9667 250.582 67.7333 249.182 71.8C247.782 75.8 247.082 79.5333 247.082 83C247.082 85.4 247.582 87.3333 248.582 88.8C249.582 90.2 250.949 90.9 252.682 90.9C254.215 90.9 255.815 90.3 257.482 89.1C259.149 87.8333 260.749 86.2 262.282 84.2C263.882 82.1333 265.382 79.8 266.782 77.2C268.182 74.6 269.415 71.9333 270.482 69.2C271.549 66.4 272.382 63.6667 272.982 61C273.582 58.3333 273.882 55.9333 273.882 53.8C273.882 52.0667 273.515 50.7 272.782 49.7C272.049 48.7 271.049 48.2 269.782 48.2ZM280.082 44H288.382L282.682 59.3C281.749 61.8333 280.815 64.5333 279.882 67.4C279.015 70.2667 278.215 73.0333 277.482 75.7C276.815 78.3667 276.282 80.8 275.882 83C275.482 85.2 275.282 86.8333 275.282 87.9C275.282 89.8333 275.915 90.8 277.182 90.8C278.115 90.8 279.449 89.8333 281.182 87.9C282.982 85.9667 284.982 83.4667 287.182 80.4L289.782 82.5C286.982 87.4333 283.949 91.2667 280.682 94C277.482 96.6667 274.382 98 271.382 98C269.849 98 268.649 97.4333 267.782 96.3C266.982 95.1 266.582 93.1667 266.582 90.5C266.582 89.9 266.582 89.2 266.582 88.4C266.649 87.6 266.749 86.5333 266.882 85.2L266.482 85.1C265.482 86.9667 264.282 88.7 262.882 90.3C261.549 91.8333 260.082 93.2 258.482 94.4C256.882 95.5333 255.215 96.4 253.482 97C251.749 97.6667 250.049 98 248.382 98C244.982 98 242.315 96.7333 240.382 94.2C238.515 91.6 237.582 88.0333 237.582 83.5C237.582 78.9 238.549 74.2 240.482 69.4C242.415 64.6 244.915 60.2667 247.982 56.4C251.049 52.4667 254.449 49.2667 258.182 46.8C261.915 44.2667 265.582 43 269.182 43C271.382 43 273.182 43.5333 274.582 44.6C275.982 45.6 277.115 47.2667 277.982 49.6L280.082 44ZM295.713 57.9C296.447 56.2333 297.547 54.5333 299.013 52.8C300.547 51 302.18 49.4 303.913 48C305.713 46.5333 307.513 45.3333 309.313 44.4C311.113 43.4667 312.68 43 314.013 43C315.613 43 316.78 43.6 317.513 44.8C318.247 46 318.613 47.9333 318.613 50.6C318.613 51.6667 318.547 52.7 318.413 53.7C318.347 54.7 318.18 55.8667 317.913 57.2L318.213 57.5C319.013 55.5667 320.147 53.6667 321.613 51.8C323.08 49.9333 324.647 48.3 326.313 46.9C328.047 45.4333 329.78 44.2667 331.513 43.4C333.313 42.4667 334.98 42 336.513 42C338.447 42 340.047 42.6333 341.313 43.9C342.647 45.1 343.313 46.6 343.313 48.4C343.313 50.1333 342.747 51.5667 341.613 52.7C340.547 53.8333 339.147 54.4 337.413 54.4C336.347 54.4 335.48 54.2 334.813 53.8C334.213 53.4 333.68 53 333.213 52.6C332.747 52.1333 332.313 51.7 331.913 51.3C331.513 50.9 331.013 50.7 330.413 50.7C329.147 50.7 327.68 51.5667 326.013 53.3C324.347 54.9667 322.613 57.2667 320.813 60.2C319.013 63.1333 317.213 66.5667 315.413 70.5C313.68 74.4333 312.08 78.6667 310.613 83.2L306.113 97H296.813L303.313 76.3C304.58 72.3 305.613 69 306.413 66.4C307.28 63.7333 307.947 61.5333 308.413 59.8C308.88 58 309.18 56.6 309.313 55.6C309.513 54.6 309.613 53.7333 309.613 53C309.613 51.5333 309.113 50.8 308.113 50.8C307.447 50.8 306.613 51.0667 305.613 51.6C304.68 52.1333 303.747 52.8 302.813 53.6C301.88 54.4 300.98 55.3 300.113 56.3C299.313 57.3 298.713 58.2667 298.313 59.2L295.713 57.9ZM347.602 58.3C347.602 56.1 348.002 54.0667 348.802 52.2C349.669 50.3333 350.836 48.7333 352.302 47.4C353.769 46 355.502 44.9333 357.502 44.2C359.569 43.4 361.802 43 364.202 43C367.402 43 370.069 43.8 372.202 45.4C374.336 47 375.402 49.0667 375.402 51.6C375.402 53 375.002 54.1 374.202 54.9C373.469 55.7 372.436 56.1 371.102 56.1C369.569 56.1 368.469 55.6667 367.802 54.8C367.136 53.8667 366.569 52.8667 366.102 51.8C365.636 50.6667 365.136 49.6333 364.602 48.7C364.069 47.7667 363.169 47.3 361.902 47.3C360.436 47.3 359.202 47.9333 358.202 49.2C357.202 50.4667 356.702 52.0333 356.702 53.9C356.702 56.1 357.336 58.1667 358.602 60.1C359.936 61.9667 361.402 63.9333 363.002 66C364.602 68.0667 366.036 70.3333 367.302 72.8C368.636 75.2667 369.302 78.1667 369.302 81.5C369.302 83.7667 368.802 85.9 367.802 87.9C366.869 89.9 365.569 91.6667 363.902 93.2C362.302 94.6667 360.436 95.8333 358.302 96.7C356.169 97.5667 353.969 98 351.702 98C347.702 98 344.502 97.1333 342.102 95.4C339.769 93.6667 338.602 91.4 338.602 88.6C338.602 86.6667 339.036 85.1667 339.902 84.1C340.836 82.9667 342.069 82.4 343.602 82.4C346.469 82.4 348.102 84.3667 348.502 88.3C348.702 90.4333 349.036 91.8667 349.502 92.6C350.036 93.2667 351.069 93.6 352.602 93.6C355.002 93.6 356.902 92.9 358.302 91.5C359.702 90.0333 360.402 88.0333 360.402 85.5C360.402 82.8333 359.736 80.4667 358.402 78.4C357.069 76.3333 355.602 74.3333 354.002 72.4C352.402 70.4 350.936 68.3 349.602 66.1C348.269 63.9 347.602 61.3 347.602 58.3Z" fill="black"/>
<path d="M139.793 140.455V155H137.598V140.455H139.793ZM144.942 148.523V155H142.818V144.091H144.857V145.866H144.991C145.242 145.289 145.635 144.825 146.17 144.474C146.71 144.124 147.39 143.949 148.209 143.949C148.952 143.949 149.603 144.105 150.162 144.418C150.721 144.725 151.154 145.185 151.462 145.795C151.769 146.406 151.923 147.161 151.923 148.061V155H149.8V148.317C149.8 147.526 149.594 146.908 149.182 146.463C148.77 146.013 148.204 145.788 147.484 145.788C146.992 145.788 146.554 145.895 146.17 146.108C145.792 146.321 145.491 146.634 145.268 147.045C145.051 147.453 144.942 147.945 144.942 148.523ZM160.235 155V140.455H162.358V145.859H162.486C162.609 145.632 162.787 145.369 163.019 145.071C163.251 144.773 163.573 144.512 163.985 144.29C164.397 144.062 164.941 143.949 165.618 143.949C166.499 143.949 167.285 144.171 167.976 144.616C168.667 145.062 169.21 145.703 169.603 146.541C170 147.379 170.199 148.388 170.199 149.567C170.199 150.746 170.003 151.757 169.61 152.599C169.217 153.437 168.677 154.084 167.99 154.538C167.304 154.988 166.52 155.213 165.64 155.213C164.977 155.213 164.435 155.102 164.013 154.879C163.596 154.657 163.27 154.396 163.033 154.098C162.796 153.8 162.614 153.535 162.486 153.303H162.309V155H160.235ZM162.316 149.545C162.316 150.312 162.427 150.985 162.65 151.562C162.872 152.14 163.194 152.592 163.615 152.919C164.037 153.241 164.553 153.402 165.164 153.402C165.798 153.402 166.328 153.234 166.755 152.898C167.181 152.557 167.503 152.095 167.721 151.513C167.943 150.93 168.054 150.275 168.054 149.545C168.054 148.826 167.945 148.179 167.728 147.607C167.515 147.034 167.193 146.581 166.762 146.25C166.336 145.919 165.803 145.753 165.164 145.753C164.548 145.753 164.027 145.911 163.601 146.229C163.18 146.546 162.86 146.989 162.642 147.557C162.425 148.125 162.316 148.788 162.316 149.545ZM179.494 150.476V144.091H181.625V155H179.537V153.111H179.423C179.172 153.693 178.77 154.179 178.216 154.567C177.667 154.95 176.982 155.142 176.163 155.142C175.463 155.142 174.842 154.988 174.303 154.68C173.768 154.368 173.346 153.906 173.038 153.295C172.735 152.685 172.584 151.929 172.584 151.03V144.091H174.707V150.774C174.707 151.518 174.913 152.109 175.325 152.55C175.737 152.99 176.272 153.21 176.93 153.21C177.328 153.21 177.723 153.111 178.116 152.912C178.514 152.713 178.843 152.412 179.104 152.01C179.369 151.607 179.499 151.096 179.494 150.476ZM192.653 146.754L190.728 147.095C190.648 146.849 190.52 146.615 190.345 146.392C190.174 146.17 189.942 145.987 189.649 145.845C189.355 145.703 188.988 145.632 188.548 145.632C187.947 145.632 187.445 145.767 187.042 146.037C186.64 146.302 186.439 146.645 186.439 147.067C186.439 147.431 186.574 147.725 186.843 147.947C187.113 148.17 187.549 148.352 188.15 148.494L189.883 148.892C190.887 149.124 191.635 149.482 192.127 149.964C192.62 150.447 192.866 151.075 192.866 151.847C192.866 152.5 192.677 153.082 192.298 153.594C191.924 154.1 191.401 154.498 190.728 154.787C190.061 155.076 189.287 155.22 188.406 155.22C187.184 155.22 186.188 154.96 185.416 154.439C184.644 153.913 184.171 153.168 183.995 152.202L186.048 151.889C186.176 152.424 186.439 152.829 186.836 153.104C187.234 153.374 187.752 153.509 188.392 153.509C189.088 153.509 189.644 153.364 190.061 153.075C190.477 152.782 190.686 152.424 190.686 152.003C190.686 151.662 190.558 151.375 190.302 151.143C190.051 150.911 189.665 150.736 189.145 150.618L187.298 150.213C186.28 149.981 185.527 149.612 185.039 149.105C184.556 148.598 184.315 147.957 184.315 147.18C184.315 146.536 184.495 145.973 184.855 145.49C185.215 145.007 185.712 144.631 186.346 144.361C186.981 144.086 187.708 143.949 188.527 143.949C189.706 143.949 190.634 144.205 191.311 144.716C191.988 145.223 192.435 145.902 192.653 146.754ZM195.201 155V144.091H197.325V155H195.201ZM196.273 142.408C195.904 142.408 195.587 142.285 195.322 142.038C195.061 141.787 194.931 141.489 194.931 141.143C194.931 140.793 195.061 140.495 195.322 140.249C195.587 139.998 195.904 139.872 196.273 139.872C196.643 139.872 196.958 139.998 197.218 140.249C197.483 140.495 197.616 140.793 197.616 141.143C197.616 141.489 197.483 141.787 197.218 142.038C196.958 142.285 196.643 142.408 196.273 142.408ZM202.305 148.523V155H200.181V144.091H202.22V145.866H202.355C202.606 145.289 202.999 144.825 203.534 144.474C204.074 144.124 204.753 143.949 205.572 143.949C206.315 143.949 206.967 144.105 207.525 144.418C208.084 144.725 208.517 145.185 208.825 145.795C209.133 146.406 209.287 147.161 209.287 148.061V155H207.163V148.317C207.163 147.526 206.957 146.908 206.545 146.463C206.133 146.013 205.567 145.788 204.848 145.788C204.355 145.788 203.917 145.895 203.534 146.108C203.155 146.321 202.854 146.634 202.632 147.045C202.414 147.453 202.305 147.945 202.305 148.523ZM216.836 155.22C215.761 155.22 214.836 154.991 214.059 154.531C213.288 154.067 212.691 153.416 212.27 152.578C211.853 151.735 211.645 150.748 211.645 149.616C211.645 148.499 211.853 147.514 212.27 146.662C212.691 145.81 213.278 145.144 214.031 144.666C214.788 144.188 215.674 143.949 216.687 143.949C217.303 143.949 217.899 144.051 218.477 144.254C219.055 144.458 219.573 144.777 220.032 145.213C220.492 145.649 220.854 146.214 221.119 146.911C221.384 147.602 221.517 148.442 221.517 149.432V150.185H212.845V148.594H219.436C219.436 148.035 219.322 147.54 219.095 147.109C218.868 146.674 218.548 146.33 218.136 146.08C217.729 145.829 217.251 145.703 216.701 145.703C216.105 145.703 215.584 145.85 215.139 146.143C214.699 146.432 214.358 146.811 214.116 147.28C213.879 147.744 213.761 148.248 213.761 148.793V150.036C213.761 150.765 213.889 151.385 214.145 151.896C214.405 152.408 214.767 152.798 215.231 153.068C215.695 153.333 216.237 153.466 216.858 153.466C217.26 153.466 217.627 153.409 217.958 153.295C218.29 153.177 218.576 153.002 218.818 152.77C219.059 152.538 219.244 152.251 219.372 151.911L221.382 152.273C221.221 152.865 220.932 153.383 220.515 153.828C220.103 154.268 219.585 154.612 218.96 154.858C218.34 155.099 217.632 155.22 216.836 155.22ZM232.048 146.754L230.123 147.095C230.042 146.849 229.915 146.615 229.739 146.392C229.569 146.17 229.337 145.987 229.043 145.845C228.75 145.703 228.383 145.632 227.942 145.632C227.341 145.632 226.839 145.767 226.437 146.037C226.034 146.302 225.833 146.645 225.833 147.067C225.833 147.431 225.968 147.725 226.238 147.947C226.508 148.17 226.943 148.352 227.545 148.494L229.278 148.892C230.281 149.124 231.03 149.482 231.522 149.964C232.014 150.447 232.261 151.075 232.261 151.847C232.261 152.5 232.071 153.082 231.692 153.594C231.318 154.1 230.795 154.498 230.123 154.787C229.455 155.076 228.681 155.22 227.8 155.22C226.579 155.22 225.582 154.96 224.81 154.439C224.039 153.913 223.565 153.168 223.39 152.202L225.442 151.889C225.57 152.424 225.833 152.829 226.231 153.104C226.629 153.374 227.147 153.509 227.786 153.509C228.482 153.509 229.039 153.364 229.455 153.075C229.872 152.782 230.08 152.424 230.08 152.003C230.08 151.662 229.952 151.375 229.697 151.143C229.446 150.911 229.06 150.736 228.539 150.618L226.692 150.213C225.674 149.981 224.922 149.612 224.434 149.105C223.951 148.598 223.71 147.957 223.71 147.18C223.71 146.536 223.889 145.973 224.249 145.49C224.609 145.007 225.106 144.631 225.741 144.361C226.375 144.086 227.102 143.949 227.921 143.949C229.1 143.949 230.028 144.205 230.705 144.716C231.382 145.223 231.83 145.902 232.048 146.754ZM242.77 146.754L240.846 147.095C240.765 146.849 240.637 146.615 240.462 146.392C240.292 146.17 240.06 145.987 239.766 145.845C239.472 145.703 239.105 145.632 238.665 145.632C238.064 145.632 237.562 145.767 237.159 146.037C236.757 146.302 236.556 146.645 236.556 147.067C236.556 147.431 236.691 147.725 236.961 147.947C237.23 148.17 237.666 148.352 238.267 148.494L240 148.892C241.004 149.124 241.752 149.482 242.245 149.964C242.737 150.447 242.983 151.075 242.983 151.847C242.983 152.5 242.794 153.082 242.415 153.594C242.041 154.1 241.518 154.498 240.846 154.787C240.178 155.076 239.404 155.22 238.523 155.22C237.301 155.22 236.305 154.96 235.533 154.439C234.761 153.913 234.288 153.168 234.113 152.202L236.165 151.889C236.293 152.424 236.556 152.829 236.953 153.104C237.351 153.374 237.87 153.509 238.509 153.509C239.205 153.509 239.761 153.364 240.178 153.075C240.595 152.782 240.803 152.424 240.803 152.003C240.803 151.662 240.675 151.375 240.419 151.143C240.168 150.911 239.783 150.736 239.262 150.618L237.415 150.213C236.397 149.981 235.644 149.612 235.157 149.105C234.674 148.598 234.432 147.957 234.432 147.18C234.432 146.536 234.612 145.973 234.972 145.49C235.332 145.007 235.829 144.631 236.463 144.361C237.098 144.086 237.825 143.949 238.644 143.949C239.823 143.949 240.751 144.205 241.428 144.716C242.105 145.223 242.552 145.902 242.77 146.754Z" fill="#8E8C95"/>
</svg>
